<svg width="58" height="58" viewBox="0 0 58 58" fill="none" xmlns="http://www.w3.org/2000/svg">
<g clip-path="url(#clip0_97_2229)">
<path d="M47.7385 3H10.4207C9.19726 3 8.20166 3.96497 8.20166 5.15074V52.5416C8.20166 53.7289 9.19726 54.6923 10.4207 54.6923H47.7385C48.9622 54.6923 49.9575 53.7289 49.9575 52.5416V5.15074C49.9575 3.96497 48.9622 3 47.7385 3ZM47.8925 52.6375H10.2683V5.05467H47.8925V52.6375Z" fill="#023460"/>
<path d="M43.4827 10.168H14.6074C14.2806 10.168 14.0156 10.4248 14.0156 10.7415V11.6706C14.0156 11.9874 14.2806 12.2442 14.6074 12.2442H43.4827C43.8093 12.2442 44.0743 11.9874 44.0743 11.6706V10.7415C44.0743 10.4248 43.8093 10.168 43.4827 10.168Z" fill="#023460"/>
<path d="M28.454 13.4609H14.6074C14.2806 13.4609 14.0156 13.7177 14.0156 14.0345V14.9636C14.0156 15.2803 14.2806 15.5371 14.6074 15.5371H28.454C28.7808 15.5371 29.0458 15.2803 29.0458 14.9636V14.0345C29.0458 13.7177 28.7808 13.4609 28.454 13.4609Z" fill="#023460"/>
<path d="M40.5242 48.5469H33.5209C33.1941 48.5469 32.9292 48.8034 32.9292 49.1203V50.2702C32.9292 50.5871 33.1941 50.8436 33.5209 50.8436H40.5242C40.851 50.8436 41.1159 50.5871 41.1159 50.2702V49.1203C41.1159 48.8034 40.851 48.5469 40.5242 48.5469Z" fill="#023460"/>
<path d="M44.5597 45.941C44.0343 46.7697 43.0863 47.2818 42.0833 47.2818H31.9675C30.9482 47.2818 30.0207 46.7814 29.4851 45.9397C28.9511 45.1023 28.9008 44.0756 29.352 43.1939C29.3535 43.191 29.3564 43.1881 29.3564 43.1839C29.747 42.4269 30.0103 41.6196 30.139 40.7838L30.7485 36.8406C30.9408 35.5644 31.534 34.3945 32.466 33.464C33.1894 32.7427 34.0681 32.2151 35.0416 31.9111V31.7319C35.0416 31.2215 35.2339 30.7426 35.583 30.3869C35.9587 30.007 36.4824 29.7891 37.0224 29.7891C37.5624 29.7891 38.0875 30.007 38.4618 30.3869C38.8124 30.744 39.0047 31.2215 39.0047 31.7319V31.9111C39.9766 32.2151 40.8554 32.7427 41.5787 33.464C42.5107 34.3945 43.1053 35.5645 43.2963 36.8464L43.9057 40.7821C44.0343 41.6196 44.2993 42.4269 44.6883 43.1852C45.141 44.0543 45.0923 45.1111 44.5597 45.941Z" fill="#023460"/>
</g>
<defs>
<clipPath id="clip0_97_2229">
<rect width="42" height="51.6923" fill="white" transform="translate(8 3)"/>
</clipPath>
</defs>
</svg>