<svg width="134" height="134" viewBox="0 0 134 134" fill="none" xmlns="http://www.w3.org/2000/svg">
<path d="M66.8398 48C27.7402 48 7 74.6432 7 74.6432L15.5158 80.139C15.5158 80.139 16.5231 77.6769 18.9039 74.1157C18.9039 74.995 19.0412 75.6105 19.0412 75.6105C20.5521 86.8218 31.8607 86.558 31.8607 86.558H102.093C102.093 86.558 113.585 86.8657 115.05 75.6545C115.05 75.6545 115.188 75.0829 115.188 74.2036C117.477 77.6329 118.53 80.051 118.53 80.051L127 74.5993C127 74.6432 105.939 48 66.8398 48ZM113.311 75.5226C113.311 75.5226 111.8 84.0959 101.91 84.0959H31.815C21.9714 84.0959 20.5521 75.4346 20.5521 75.4346C20.1858 73.1484 20.6436 71.5656 21.3762 70.4665C28.4727 61.4975 42.5284 49.4509 66.794 49.4509C91.2884 49.4509 105.436 61.6733 112.532 70.6424C113.402 71.6536 113.677 73.3243 113.311 75.5226Z" fill="#EC2027"/>
<path d="M46.3741 66.2018L47.5187 63.7837H32.5473L31.357 66.2018H37.1715L31.1738 77.9407H35.0655L41.0632 66.2018H46.3741Z" fill="#EC2027"/>
<path d="M104.292 75.8304C104.292 75.8304 103.514 76.1821 103.193 75.8304C102.873 75.5226 103.147 74.9071 103.147 74.9071L106.306 68.4881H103.102L102.598 69.3234C100.721 67.7407 97.1496 68.532 94.952 70.7743C93.67 72.0493 92.9832 73.5441 92.8459 74.8631C92.4796 75.0829 91.8844 75.4347 91.1061 75.7424C91.1061 75.7424 90.3278 76.0941 90.0073 75.7424C89.6868 75.4347 89.9615 74.8191 89.9615 74.8191L95.5929 63.6958H92.388L89.4121 69.2795C87.5349 67.6967 83.9638 68.4881 81.7661 70.7303C81.3083 71.17 80.942 71.6536 80.6215 72.1372C80.6215 72.1812 80.5758 72.2252 80.5758 72.2691C80.53 72.401 80.4384 72.489 80.3926 72.6209C78.6528 75.5226 76.4552 76.0062 76.4552 76.0062C71.831 77.3252 71.3274 75.1709 71.3274 75.1709C76.501 73.3243 78.4239 71.17 78.2408 69.4993C78.0576 67.8286 75.6769 67.7406 75.6769 67.7406C71.7852 67.5208 68.3972 70.1588 67.5731 72.7088C67.3442 73.5002 67.2526 74.2915 67.39 75.039C65.8333 75.8304 64.9176 75.9623 64.9176 75.9623C63.6357 76.3579 63.4525 75.7424 63.3152 75.3907C63.1778 75.039 62.5826 71.8295 62.5826 71.8295L68.0767 68.4001H64.7345L60.6139 70.8622C59.6982 71.2139 60.0645 70.2907 60.0645 70.2907L63.4525 63.7398H60.2019L54.7536 74.3795C54.1126 74.7312 52.8764 75.4347 51.9607 75.7864C51.9607 75.7864 51.1824 76.1381 50.8619 75.7864C50.5414 75.4786 50.8161 74.8631 50.8161 74.8631L53.9752 68.4441H50.7246L50.2209 69.2795C48.3438 67.6967 44.7726 68.4881 42.575 70.7303C40.3774 72.9286 39.828 75.8743 41.3388 77.2373C42.5292 78.3364 44.7268 78.1166 46.6498 76.8855C46.6498 76.8855 47.1534 76.4898 47.4281 76.9735C47.7028 77.4571 48.8016 78.6002 51.3655 77.589C52.1896 77.2812 52.9222 76.9295 53.5632 76.5778L52.8764 77.8967H56.1271L57.7295 74.7752L59.1488 73.8959C59.1488 73.8959 59.5609 73.5881 59.744 74.2476C59.744 74.2476 60.4308 76.8855 60.7055 77.2373C60.9802 77.589 61.5296 78.3804 63.773 77.7209C65.5128 77.2373 67.1153 76.6657 67.9851 76.314C68.7635 77.3252 70.1828 77.9847 72.6093 77.9847C76.1347 77.9847 78.6528 76.3579 79.7059 75.5226C79.7974 76.1821 80.0721 76.7976 80.53 77.2373C81.7204 78.3364 83.918 78.1166 85.8409 76.8855C85.8409 76.8855 86.3446 76.4898 86.6193 76.9735C86.894 77.4571 87.9928 78.6002 90.5567 77.589C91.7471 77.1493 92.5254 76.7097 93.029 76.4019C93.1664 76.7536 93.3953 77.0614 93.67 77.3252C94.8604 78.4243 97.058 78.2045 98.981 76.9735C98.981 76.9735 99.4846 76.5778 99.7593 77.0614C100.034 77.545 101.133 78.6881 103.697 77.6769C106.261 76.7097 106.993 75.8304 106.993 75.8304L106.352 74.7312C106.306 74.7312 105.528 75.3467 104.292 75.8304ZM48.2064 73.9838C47.0618 75.4786 45.5052 76.27 44.6811 75.6985C43.857 75.1269 44.0859 73.4562 45.1847 71.9174C46.2835 70.4226 47.8859 69.6312 48.7101 70.2027C49.5342 70.7743 49.3053 72.489 48.2064 73.9838ZM71.0985 72.8846C71.0985 72.8846 71.831 70.5545 74.166 69.5872C74.166 69.5872 74.8528 69.3674 75.219 69.6312C75.219 69.6312 75.7226 70.1148 75.1275 70.9502C74.578 71.6976 73.2961 73.1045 71.9226 73.5881C71.8768 73.6321 70.6406 74.1597 71.0985 72.8846ZM87.3976 73.9838C86.2988 75.4786 84.6963 76.27 83.8722 75.6985C83.0481 75.1269 83.277 73.4562 84.3758 71.9174C85.4747 70.4226 87.0771 69.6312 87.9012 70.2027C88.7711 70.7743 88.5422 72.489 87.3976 73.9838ZM100.538 74.0278C99.4388 75.5226 97.8363 76.314 97.0122 75.7424C96.1881 75.1709 96.417 73.5002 97.5159 71.9614C98.6147 70.4665 100.217 69.6751 101.041 70.2467C101.911 70.8622 101.636 72.5329 100.538 74.0278Z" fill="#EC2027"/>
</svg>
