<svg width="134" height="134" viewBox="0 0 134 134" fill="none" xmlns="http://www.w3.org/2000/svg">
<g clip-path="url(#clip0_73_1348)">
<mask id="mask0_73_1348" style="mask-type:luminance" maskUnits="userSpaceOnUse" x="12" y="48" width="110" height="38">
<path d="M122 48H12V85.2881H122V48Z" fill="white"/>
</mask>
<g mask="url(#mask0_73_1348)">
<path d="M39.9653 66.6586C45.1169 66.6586 49.2929 62.4818 49.2929 57.3293C49.2929 52.1769 45.1169 48 39.9653 48C34.8138 48 30.6377 52.1769 30.6377 57.3293C30.6377 62.4818 34.8138 66.6586 39.9653 66.6586Z" fill="#EE4036"/>
<path d="M21.3276 66.6586C26.4792 66.6586 30.6553 62.4818 30.6553 57.3293C30.6553 52.1769 26.4792 48 21.3276 48C16.1761 48 12 52.1769 12 57.3293C12 62.4818 16.1761 66.6586 21.3276 66.6586Z" fill="#EE4036"/>
<path d="M39.9653 85.2881C45.1169 85.2881 49.2929 81.1112 49.2929 75.9587C49.2929 70.8063 45.1169 66.6294 39.9653 66.6294C34.8138 66.6294 30.6377 70.8063 30.6377 75.9587C30.6377 81.1112 34.8138 85.2881 39.9653 85.2881Z" fill="#EE4036"/>
<path d="M66.0169 50.0894H68.9671L73.9131 64.1328H70.9455L70.0028 61.1472H64.9521L64.0268 64.1328H61.1174L66.0169 50.0894ZM65.6095 58.9647H69.3162L68.0593 54.9199C67.8266 54.1749 67.4774 52.7607 67.4774 52.7607H67.4542C67.4542 52.7607 67.0992 54.1749 66.8723 54.9199L65.6095 58.9647Z" fill="#2E3A41"/>
<path d="M74.6985 50.0893H80.9771C82.1967 50.0062 83.4047 50.3703 84.3753 51.1136C84.7458 51.441 85.0384 51.8472 85.2316 52.3024C85.425 52.7575 85.5141 53.2501 85.4925 53.7442C85.4925 55.1759 84.608 56.1012 83.2929 56.5494V56.6076C84.06 56.8066 84.7365 57.2608 85.2114 57.8954C85.6862 58.53 85.9311 59.3073 85.9056 60.0995C85.9389 60.6474 85.8442 61.1957 85.6291 61.7007C85.414 62.2058 85.0843 62.6538 84.6663 63.0095C83.6624 63.7968 82.4083 64.1956 81.1341 64.1327H74.6985V50.0893ZM80.6221 55.7462C81.8615 55.7462 82.7053 55.1642 82.7053 54.0585C82.7053 52.9527 81.9371 52.4056 80.6628 52.4056H77.5206V55.7462H80.6221ZM77.5439 61.7757H80.82C82.1932 61.7757 83.0195 61.0075 83.0195 59.8667C83.0195 58.534 82.036 57.8472 80.7443 57.8472H77.5439V61.7757Z" fill="#2E3A41"/>
<path d="M86.6677 57.1432C86.6677 52.9412 89.2979 49.8159 93.4409 49.8159C97.584 49.8159 100.197 52.9412 100.197 57.1432C100.197 61.3452 97.584 64.4413 93.4642 64.4413C89.3445 64.4413 86.6677 61.3393 86.6677 57.1432ZM97.2872 57.1432C97.2872 54.3322 96.0303 52.1555 93.4584 52.1555C90.8864 52.1555 89.5772 54.3322 89.5772 57.1432C89.5772 59.9541 90.8923 62.1075 93.4584 62.1075C96.0245 62.1075 97.2872 59.9309 97.2872 57.1432Z" fill="#2E3A41"/>
<path d="M62.1528 68.6954H68.315C68.9843 68.653 69.6553 68.7477 70.2867 68.9739C70.9181 69.2001 71.4966 69.5529 71.9867 70.0107C72.8124 70.8695 73.2643 72.0205 73.2436 73.2117C73.2436 75.8655 71.498 77.6523 68.5536 77.6523H65.0972V82.7389H62.1528V68.6954ZM65.0972 75.3534H68.0416C69.5311 75.3534 70.3167 74.527 70.3167 73.2524C70.3167 71.9779 69.4963 71.1863 68.0823 71.1863H65.0972V75.3534Z" fill="#2E3A41"/>
<path d="M74.0876 68.6958H76.7586V82.7392H74.0876V68.6958Z" fill="#2E3A41"/>
<path d="M84.154 81.6156H84.1133C83.6012 82.3838 82.8738 82.9716 81.1456 82.9716C79.0857 82.9716 77.6543 81.8949 77.6543 79.8871C77.6543 77.6697 79.464 76.9771 81.7275 76.6512C83.3975 76.4126 84.1656 76.2788 84.1656 75.4873C84.1656 74.6957 83.5838 74.2883 82.4782 74.2883C81.2213 74.2883 80.6103 74.7423 80.5346 75.7026H78.1606C78.2362 73.9566 79.5512 72.3853 82.4956 72.3853C85.44 72.3853 86.7376 73.7412 86.7376 76.0983V81.2198C86.7376 81.9881 86.8539 82.4362 87.0867 82.6167V82.7156H84.5205C84.3212 82.3793 84.1962 82.0042 84.154 81.6156ZM84.154 79.1829V77.6814C83.5594 77.956 82.9315 78.1517 82.2861 78.2634C80.8954 78.5776 80.2088 78.8918 80.2088 79.8347C80.2088 80.7775 80.8372 81.1151 81.7799 81.1151C83.3336 81.1093 84.154 80.1665 84.154 79.1829Z" fill="#2E3A41"/>
<path d="M87.3547 79.4744H89.8277C90.0081 80.6383 90.8286 81.1447 92.0272 81.1447C93.2259 81.1447 93.8719 80.6966 93.8719 79.9807C93.8719 79.0204 92.5975 78.9215 91.2242 78.648C89.3913 78.2988 87.6457 77.8098 87.6457 75.6099C87.6457 73.41 89.4495 72.3916 91.7479 72.3916C94.3956 72.3916 95.8677 73.7068 96.0655 75.7264H93.6507C93.5343 74.6497 92.8477 74.254 91.7072 74.254C90.6656 74.254 89.9616 74.6497 89.9616 75.3714C89.9616 76.2385 91.2999 76.3142 92.7313 76.611C94.4188 76.966 96.2866 77.4374 96.2866 79.7886C96.2866 81.8139 94.541 83.0304 92.0447 83.0304C89.1411 83.0304 87.5118 81.6161 87.3547 79.4744Z" fill="#2E3A41"/>
<path d="M97.1128 72.6645H99.6847V74.0205H99.7429C100.038 73.5137 100.464 73.0952 100.975 72.8086C101.487 72.522 102.066 72.3778 102.652 72.391C103.236 72.38 103.811 72.5393 104.306 72.8493C104.801 73.1593 105.195 73.6067 105.44 74.137H105.475C105.781 73.6057 106.223 73.1647 106.753 72.8583C107.284 72.5518 107.887 72.3906 108.5 72.391C110.619 72.391 111.817 73.7645 111.817 75.9644V82.7388H109.176V76.4125C109.176 75.2485 108.593 74.6666 107.627 74.6666C106.504 74.6666 105.818 75.5337 105.818 76.8665V82.7388H103.153V76.4125C103.153 75.2485 102.571 74.6666 101.599 74.6666C100.517 74.6666 99.7953 75.5337 99.7953 76.8665V82.7388H97.1244L97.1128 72.6645Z" fill="#2E3A41"/>
<path d="M119.12 81.6156H119.067C118.556 82.3838 117.828 82.9716 116.1 82.9716C114.04 82.9716 112.608 81.8949 112.608 79.8871C112.608 77.6697 114.418 76.9771 116.682 76.6512C118.351 76.4126 119.12 76.2788 119.12 75.4873C119.12 74.6957 118.538 74.2883 117.432 74.2883C116.176 74.2883 115.564 74.7423 115.489 75.7026H113.109C113.191 73.9566 114.505 72.3853 117.45 72.3853C120.394 72.3853 121.692 73.7412 121.692 76.0983V81.2198C121.692 81.9881 121.808 82.4362 122.041 82.6167V82.7156H119.475C119.277 82.3795 119.156 82.0039 119.12 81.6156ZM119.12 79.1829V77.6814C118.525 77.956 117.897 78.1517 117.251 78.2634C115.862 78.5776 115.175 78.8918 115.175 79.8347C115.175 80.7775 115.803 81.1151 116.745 81.1151C118.294 81.1093 119.137 80.1665 119.137 79.1829H119.12Z" fill="#2E3A41"/>
</g>
</g>
<defs>
<clipPath id="clip0_73_1348">
<rect width="110" height="37.2881" fill="white" transform="translate(12 48)"/>
</clipPath>
</defs>
</svg>
