<svg width="58" height="58" viewBox="0 0 58 58" fill="none" xmlns="http://www.w3.org/2000/svg">
<path d="M45.4217 23.1016H41.3037V38.9049H45.4217V23.1016Z" fill="#023460"/>
<path d="M36.1195 23.1016H32.0015V38.9049H36.1195V23.1016Z" fill="#023460"/>
<path d="M26.8183 23.1016H22.7002V38.9049H26.8183V23.1016Z" fill="#023460"/>
<path d="M17.5155 23.1016H13.3975V38.9049H17.5155V23.1016Z" fill="#023460"/>
<path d="M29.5008 6.89917L52.0536 13.5742V17.4384L48.0506 21.3418H10.9509L6.94769 17.4384V13.5742L29.5008 6.89917ZM29.5008 5C29.3098 5 29.1191 5.02786 28.9344 5.08229L6.38155 11.7573C5.56095 12.0004 5 12.7385 5 13.5742V17.4384C5 17.9423 5.20517 18.4247 5.57004 18.7817L9.57318 22.6851C9.93805 23.0409 10.4341 23.241 10.9509 23.241H48.0491C48.566 23.241 49.0606 23.0409 49.4268 22.6851L53.43 18.7817C53.795 18.4259 54 17.9423 54 17.4384V13.5742C54 12.7373 53.4392 12.0004 52.6184 11.7573L30.0656 5.08229C29.8813 5.02786 29.6902 5 29.4992 5H29.5008Z" fill="#023460"/>
<path d="M46.1741 40.4538L52.0213 46.1551V51.9211H6.94769V46.1551L12.7947 40.4538H46.1729M46.1729 38.5547H12.7947C12.2779 38.5547 11.7832 38.7545 11.417 39.1103L5.57004 44.8116C5.20517 45.1674 5 45.651 5 46.1551V51.9211C5 52.9695 5.87257 53.8202 6.94769 53.8202H52.0213C53.0962 53.8202 53.9689 52.9695 53.9689 51.9211V46.1551C53.9689 45.651 53.7638 45.1689 53.3989 44.8116L47.5518 39.1103C47.1871 38.7545 46.691 38.5547 46.1741 38.5547H46.1729Z" fill="#023460"/>
</svg>