<svg width="58" height="58" viewBox="0 0 58 58" fill="none" xmlns="http://www.w3.org/2000/svg">
<path d="M58 42.8889C58 44.8145 57.3266 46.3272 55.9807 47.428C54.975 48.2536 53.6532 48.6666 52.015 48.6666H49.0375C49.0204 48.6666 49.0036 48.6666 48.9865 48.6643H48.2438V48.6623H29.4541C29.2047 48.6623 29.0006 48.4595 29.0006 48.2096V47.3045C29.0006 47.0545 29.2047 46.8521 29.4541 46.8521H48.2438V31.0111C48.2438 20.4241 39.6114 11.8102 29.0006 11.8102C18.3897 11.8102 9.75833 20.4241 9.75833 31.0111V48.2142C9.75833 48.4642 9.55535 48.6666 9.30479 48.6666H5.98514C4.34687 48.6666 3.02487 48.2536 2.01924 47.428C0.673467 46.3272 0 44.8145 0 42.8889C0 40.9633 0.730133 39.3445 2.1893 38.2278C3.1632 37.4825 4.42847 37.1101 5.98514 37.1101H7.94429V31.0111C7.94429 19.4263 17.3908 10 29.0006 10C40.6104 10 50.0581 19.4263 50.0581 31.0111V37.1101H52.015C53.5714 37.1101 54.8367 37.4825 55.8108 38.2278C57.2698 39.3445 58 40.8978 58 42.8889Z" fill="#023460"/>
<path d="M41.1984 29.6426V30.5477C41.1984 30.7977 40.9954 31.0001 40.7448 31.0001H31.1577C30.8039 31.8385 29.9719 32.4278 29.0013 32.4278C27.7099 32.4278 26.6636 31.3838 26.6636 30.095C26.6636 29.1279 27.254 28.2962 28.0941 27.9432V18.4096C28.0941 18.1607 28.2983 17.957 28.5477 17.957H29.4548C29.7054 17.957 29.9084 18.1607 29.9084 18.4096V28.7375C29.9084 28.9875 30.1123 29.1899 30.3619 29.1899H40.7448C40.9954 29.1899 41.1984 29.3927 41.1984 29.6426Z" fill="#023460"/>
</svg>