<svg width="134" height="134" viewBox="0 0 134 134" fill="none" xmlns="http://www.w3.org/2000/svg">
<g clip-path="url(#clip0_73_1772)">
<path d="M19.6969 63.6084C19.6969 65.6894 20.7485 66.9758 22.4452 66.9758C24.1453 66.9758 25.1934 65.6894 25.1934 63.6084V49.8376H32.8903V63.6084C32.8903 69.8476 29.2465 74.5077 22.4452 74.5077C15.6501 74.5077 12 69.8476 12 63.6084V49.8376H19.6969M36.9956 73.9158V60.1447C36.9956 53.8993 40.6394 49.2461 47.4411 49.2461C54.2358 49.2461 57.8828 53.8993 57.8828 60.1447V73.9158H50.189V60.1444C50.189 58.0637 49.1381 56.7742 47.4411 56.7742C45.7371 56.7742 44.689 58.0637 44.689 60.1444V73.9158" fill="#0063AF"/>
<path fill-rule="evenodd" clip-rule="evenodd" d="M62.8801 49.8384H70.879V73.91H62.8801V49.8384Z" fill="#0063AF"/>
<path d="M91.3221 57.0222H87.9215C84.6242 57.0222 82.8788 58.9033 82.8788 61.8753C82.8788 64.8467 84.6242 66.7828 87.9215 66.7828H91.3221V73.9096H86.5226C80.7237 73.9096 74.8799 69.5068 74.8799 61.8753C74.8799 54.2981 80.7237 49.8376 86.5226 49.8376H91.3221M113.764 73.9158V62.8176C113.764 58.5594 111.762 56.4757 108.118 56.4757C105.216 56.4757 102.618 58.7044 102.618 61.7273C102.618 65.3905 105.314 67.2781 107.917 67.2781C109.516 67.2781 110.866 66.9274 111.762 66.5835V73.1247C110.259 74.1604 108.562 74.5077 106.314 74.5077C101.219 74.5077 94.619 70.2011 94.619 61.9234C94.619 54.6907 100.217 49.2461 107.962 49.2461C115.51 49.2464 121.76 53.3078 121.76 60.9365V73.9158" fill="#0063AF"/>
<path d="M63.8991 45.6121C63.555 45.0784 62.8348 44.1617 62.3543 43.4028C61.8482 42.602 61.4587 41.8528 61.4587 40.9748C61.4587 40.1063 61.7542 39.3926 62.3446 38.8361C62.9323 38.2798 63.6619 38 64.5419 38C65.1385 38 65.7003 38.1512 66.2157 38.4628C66.7737 38.8039 67.1313 39.2446 67.2867 39.7915C67.9 38.6012 68.8052 38 70.0097 38C70.8174 38 71.5248 38.2605 72.1249 38.7811C72.7642 39.3318 73.0821 39.9938 73.0821 40.7853C73.0821 42.3865 71.8164 43.6024 70.2328 45.6831C69.13 47.1431 67.7896 48.899 66.9885 48.899C66.1739 48.899 64.3564 46.3164 63.8991 45.6121Z" fill="#A70E13"/>
<path d="M62.6436 95.5786V86.9212C62.6436 83.8339 64.6357 81.7563 67.423 81.7563C70.5092 81.7563 72.326 84.1075 72.326 86.8828C72.326 89.5068 70.191 91.5491 67.7606 91.5491C66.8097 91.5491 65.9076 91.3526 65.0732 90.8801V89.0793C65.7066 89.5069 66.6734 89.8995 67.4621 89.8995C69.3408 89.8995 70.5808 88.6096 70.5808 86.6707C70.5808 84.7474 69.2826 83.4001 67.423 83.4001C65.7651 83.4001 64.3793 84.6509 64.3793 87.2366V95.579" fill="#0063AF"/>
<path fill-rule="evenodd" clip-rule="evenodd" d="M74.1565 77.6426H75.8975V91.3466H74.1565V77.6426Z" fill="#0063AF"/>
<path d="M85.6794 91.3466V86.0659C85.6794 84.3004 84.1705 83.4031 82.5935 83.4031C80.6789 83.4031 79.4716 84.9082 79.4716 86.6865C79.4716 88.4292 80.7567 89.9025 82.5741 89.9025C83.5634 89.9025 84.3715 89.3528 84.9685 88.607V90.6455C84.2739 91.1536 83.6056 91.5459 82.3953 91.5459C79.6664 91.5459 77.7358 89.3141 77.7358 86.5519C77.7358 83.8659 79.5955 81.75 82.6353 81.75C85.5628 81.75 87.4155 83.5159 87.4155 86.214V91.3466M88.759 89.7063H93.6163C94.4275 89.7063 94.7457 89.3943 94.7457 88.8059C94.7457 87.0853 88.759 87.7478 88.759 84.4965C88.759 82.8337 89.9206 81.9562 91.9968 81.9562L96.0889 81.9558V83.5992H91.7017C90.8549 83.5992 90.5917 83.8376 90.5761 84.4194C90.556 86.0435 96.559 85.3586 96.559 88.7288C96.559 90.5071 95.2936 91.3525 93.6156 91.3525H88.759M97.9451 91.3466V84.9659C97.9451 83.2035 99.4083 81.75 101.345 81.75C102.41 81.75 103.471 82.1841 104.107 83.0849C104.74 82.1841 105.808 81.75 106.875 81.75C108.806 81.75 110.266 83.2039 110.266 84.9659V91.3466H108.53V85.3613C108.53 84.1624 107.858 83.4031 106.833 83.4031C105.71 83.4031 104.98 84.0303 104.98 85.6315V91.3466H103.234V85.6315C103.234 84.0303 102.505 83.4031 101.378 83.4031C100.353 83.4031 99.6781 84.1624 99.6781 85.3613V91.3466M119.696 91.3466V86.0659C119.696 84.3004 118.193 83.4031 116.613 83.4031C114.695 83.4031 113.494 84.9082 113.494 86.6865C113.494 88.4292 114.773 89.9025 116.597 89.9025C117.58 89.9025 118.388 89.3528 118.985 88.607V90.6455C118.291 91.1536 117.618 91.5459 116.418 91.5459C113.689 91.5459 111.755 89.3141 111.755 86.5519C111.755 83.8659 113.611 81.75 116.651 81.75C119.578 81.75 121.431 83.5159 121.431 86.214V91.3466" fill="#0063AF"/>
</g>
<defs>
<clipPath id="clip0_73_1772">
<rect width="110" height="57.7673" fill="white" transform="translate(12 38)"/>
</clipPath>
</defs>
</svg>
