<svg width="58" height="58" viewBox="0 0 58 58" fill="none" xmlns="http://www.w3.org/2000/svg">
<path d="M49.3276 14.5602C49.6967 14.214 50.0951 13.8969 50.5233 13.613C50.8337 13.408 50.9749 13.0279 50.8792 12.6703L49.1212 6.10978C48.7141 4.59072 47.148 3.68996 45.624 4.09834L3.12033 15.4872C1.5963 15.8956 0.690368 17.4587 1.0974 18.9777L2.83314 25.4557C2.93123 25.8216 3.2584 26.0827 3.63885 26.0961C4.13596 26.113 4.6271 26.1697 5.10829 26.2663C8.41744 26.9234 11.2319 29.3868 12.162 32.8578C13.092 36.329 11.8868 39.8708 9.34934 42.0943C8.98094 42.4185 8.58403 42.7133 8.16194 42.9764C7.83915 43.1784 7.68634 43.5678 7.7844 43.9338L9.8788 51.7503C10.2858 53.2694 11.8519 54.1702 13.376 53.7618L55.8797 42.3729C57.4037 41.9648 58.3097 40.4014 57.9026 38.8823L55.7861 30.9837C55.6905 30.626 55.378 30.3674 55.0069 30.3449C54.4941 30.3132 53.9901 30.2379 53.4977 30.1226C50.3165 29.3813 47.6393 26.9603 46.7371 23.5937C45.8349 20.2265 46.9432 16.7926 49.3276 14.5602ZM44.8171 24.1081C45.9589 28.3697 49.4505 31.3876 53.5309 32.1531C53.8575 32.2142 54.1216 32.4514 54.2069 32.7694L55.9826 39.3971C56.1065 39.8597 55.8313 40.3348 55.367 40.4591L24.4759 48.7364L15.2458 14.2893L46.1367 6.01207C46.6 5.88795 47.0772 6.16136 47.2011 6.62422L48.6181 11.9121C48.7037 12.2315 48.5932 12.5687 48.3412 12.7849C45.1889 15.4872 43.6753 19.8463 44.8171 24.1081Z" fill="#023460"/>
<path d="M17.8284 11.6901L19.1456 16.606C19.2164 16.8704 19.059 17.142 18.7938 17.2131L17.8338 17.4703C17.5686 17.5414 17.2964 17.3848 17.2255 17.1205L15.9083 12.2046C15.8962 12.1592 15.89 12.1121 15.892 12.0667L17.7736 11.5625C17.798 11.6008 17.8162 11.6447 17.8284 11.6901Z" fill="#023460"/>
<path d="M19.4753 19.7515L18.5153 20.0087C18.2501 20.0798 18.0926 20.3515 18.1634 20.6158L19.4807 25.5316C19.5514 25.7957 19.8237 25.9525 20.0888 25.8814L21.0489 25.6241C21.314 25.5534 21.4715 25.2813 21.4007 25.0172L20.0835 20.1013C20.0127 19.8371 19.7404 19.6805 19.4753 19.7515Z" fill="#023460"/>
<path d="M21.7297 28.1617L20.7697 28.4189C20.5045 28.49 20.347 28.7617 20.4178 29.0259L21.735 33.9417C21.8059 34.2062 22.0781 34.3626 22.3433 34.2918L23.3032 34.0346C23.5683 33.9635 23.7258 33.6918 23.655 33.4273L22.3379 28.5114C22.2671 28.2473 21.9948 28.0905 21.7297 28.1617Z" fill="#023460"/>
<path d="M23.9832 36.5718L23.0231 36.8291C22.7579 36.9002 22.6005 37.1719 22.6712 37.436L23.9884 42.3522C24.0592 42.6164 24.3316 42.7728 24.5968 42.702L25.557 42.4448C25.8218 42.3736 25.9796 42.1019 25.9088 41.8374L24.5912 36.9216C24.5205 36.6575 24.2484 36.5007 23.9832 36.5718Z" fill="#023460"/>
<path d="M26.8438 45.3359L28.0481 49.8305L26.1281 50.345L24.9238 45.8503C24.8527 45.5858 25.0101 45.3141 25.2756 45.243L26.2355 44.9858C26.5006 44.915 26.7731 45.0714 26.8438 45.3359Z" fill="#023460"/>
<path d="M33.1742 24.3494C33.1742 25.3438 32.3566 26.1393 31.3402 26.1393C30.3458 26.1393 29.5282 25.3438 29.5282 24.3494C29.5282 23.3551 30.3458 22.5375 31.3402 22.5375C32.3566 22.5375 33.1742 23.3551 33.1742 24.3494ZM34.7431 24.3494C34.7431 22.4933 33.1963 20.9688 31.3623 20.9688C29.5061 20.9688 27.9814 22.4933 27.9814 24.3494C27.9814 26.2277 29.5061 27.7303 31.3623 27.7303C33.1963 27.7303 34.7431 26.2056 34.7431 24.3494ZM37.0412 33.0335C37.0412 32.0391 37.8587 31.2216 38.8973 31.2216C39.8917 31.2216 40.6871 32.0391 40.6871 33.0335C40.6871 34.05 39.8917 34.8454 38.8973 34.8454C37.8587 34.8454 37.0412 34.05 37.0412 33.0335ZM35.4944 33.0335C35.4944 34.9117 37.0412 36.4143 38.8752 36.4143C40.7313 36.4143 42.256 34.8896 42.256 33.0335C42.256 31.1774 40.7313 29.6527 38.8752 29.6527C37.0412 29.6527 35.4944 31.1774 35.4944 33.0335ZM29.6166 35.7735C29.484 35.9945 29.5503 36.1934 29.8376 36.1934H30.9645C31.2076 36.1934 31.3181 36.1271 31.4507 35.9282L40.643 21.5875C40.7755 21.3665 40.7092 21.1455 40.422 21.1455H39.295C39.052 21.1455 38.9415 21.2339 38.8089 21.4328L29.6166 35.7735Z" fill="#023460"/>
</svg>