<svg width="120" height="34" viewBox="0 0 120 34" fill="none" xmlns="http://www.w3.org/2000/svg">
<g clip-path="url(#clip0_73_2012)">
<path d="M8.86873 19.8999L5.96716 22.9473L5.9375 22.9749C6.77239 23.7943 8.11138 23.7736 8.92116 22.9243L11.841 19.8608L16.2481 15.2276C17.0511 14.3829 17.0351 13.0457 16.2116 12.2217L8.86873 19.8999Z" fill="#2876AF"/>
<path d="M4.23487 6.29273L10.2547 12.2862L13.186 9.20888L4.16187 0.225586L4.1231 0.264713C2.5172 1.94261 2.54913 4.61483 4.19609 6.2536L4.23487 6.29273Z" fill="#2775B0"/>
<path d="M8.86898 19.8998L5.96738 22.9472C4.35008 24.6458 1.67434 24.6896 0 23.0554L13.7459 8.62173L17.5805 4.59618L20.473 1.56031C22.1063 -0.15442 24.8139 -0.191248 26.4905 1.47975L8.86898 19.8998Z" fill="#D9DD48"/>
<path d="M41.8832 4.30857C41.8832 5.50542 41.5456 6.50203 40.8727 7.2938C40.0355 8.21446 38.7809 8.67246 37.1065 8.67246H33.5845V12.491H31.2988V0.223145H37.1431C38.6782 0.223145 39.8644 0.614425 40.7016 1.39468C41.4886 2.15423 41.8832 3.12322 41.8832 4.30857ZM37.2001 2.32455H33.5845V6.57799H37.1613C37.9985 6.57799 38.6167 6.37084 39.0159 5.95425C39.3786 5.56297 39.5587 5.02208 39.5587 4.32929C39.5587 3.74927 39.4219 3.28894 39.1459 2.94829C38.7855 2.5317 38.1376 2.32455 37.2001 2.32455Z" fill="#1E1E1C"/>
<path d="M53.9285 3.85542C53.9285 5.90849 52.9225 7.14448 50.9128 7.55876L52.6738 9.69472C53.0981 10.2126 53.5863 10.5647 54.136 10.7534L54.7907 10.9422L54.5466 12.7766L53.6091 12.6454C52.5096 12.4682 51.5789 11.902 50.817 10.9445L48.1937 7.69456H45.9263V12.4958H43.6406V0.228031H49.2613C52.375 0.225729 53.9285 1.43639 53.9285 3.85542ZM49.2453 2.32483H45.9286V5.59547H49.2065C50.8056 5.59547 51.604 5.03387 51.604 3.91297C51.604 3.30764 51.4079 2.89334 51.0132 2.66547C50.6231 2.43761 50.0324 2.32483 49.2453 2.32483Z" fill="#1E1E1C"/>
<path d="M67.1988 10.8293C66.056 12.0652 64.4364 12.6821 62.3378 12.6821C60.2391 12.6821 58.6196 12.0652 57.4767 10.8293C56.3339 9.59556 55.7637 8.10183 55.7637 6.35024C55.7637 4.58718 56.3339 3.08651 57.4767 1.85283C58.6196 0.619143 60.2391 0 62.3378 0C64.4364 0 66.056 0.616841 67.1988 1.85283C68.3417 3.08881 68.9119 4.58028 68.9119 6.33183C68.9119 8.09491 68.3417 9.5933 67.1988 10.8293ZM59.1922 9.31704C59.929 10.1479 60.9783 10.5646 62.34 10.5646C63.7019 10.5646 64.7512 10.1479 65.488 9.31704C66.2248 8.48615 66.5921 7.48956 66.5921 6.33183C66.5921 5.18561 66.2225 4.1959 65.488 3.36501C64.7512 2.53411 63.7019 2.11752 62.34 2.11752C60.9783 2.11752 59.929 2.53411 59.1922 3.36501C58.4554 4.1959 58.0858 5.19252 58.0858 6.35024C58.0858 7.49646 58.4554 8.48615 59.1922 9.31704Z" fill="#1E1E1C"/>
<path d="M69.5508 0.225586H80.8654V2.32469H76.1816V12.4933H73.8963V2.32469H69.5508V0.225586Z" fill="#1E1E1C"/>
<path d="M93.8845 0.225586V12.4933H91.5992V7.33307H84.9107V12.4933H82.627V0.225586H84.9107V5.21555H91.5992V0.225586H93.8845Z" fill="#1E1E1C"/>
<path d="M95.5117 0.225586H98.0962C99.1312 2.31779 100.432 4.29489 101.992 6.16154C103.552 4.2972 104.852 2.31779 105.888 0.225586H108.472C106.899 3.174 105.119 5.82088 103.135 8.16398V12.4911H100.852V8.16398C98.9145 5.87153 97.1355 3.22463 95.5117 0.225586Z" fill="#1E1E1C"/>
<path d="M112.391 0.225586H114.433C116.269 3.52615 118.123 7.6162 119.996 12.4933H117.598C117.211 11.4093 116.83 10.415 116.456 9.50815H110.35C110.238 9.77283 109.864 10.7671 109.225 12.4933H106.846C108.631 7.71748 110.482 3.62742 112.391 0.225586ZM111.23 7.42744H115.576C115.062 6.29273 114.332 4.78055 113.383 2.89089C112.672 4.26497 111.953 5.77716 111.23 7.42744Z" fill="#1E1E1C"/>
<path d="M31.2988 24.2524V16.291H34.8232C36.5819 16.291 37.4624 16.9378 37.4624 18.229C37.4624 19.1197 37.0815 19.702 36.3196 19.9714V20.0082C36.9195 20.1072 37.378 20.3281 37.6928 20.6756C38.0099 21.0232 38.1673 21.4467 38.1673 21.9462C38.1673 23.4837 37.191 24.2524 35.2384 24.2524H31.2988ZM34.8733 16.8296H31.9558V19.8356H34.9714C36.1782 19.8356 36.7827 19.3085 36.7827 18.2521C36.7827 17.7526 36.6298 17.3913 36.3265 17.1657C36.023 16.9424 35.5372 16.8296 34.8733 16.8296ZM35.1037 20.3741H31.9558V23.7115H35.0923C35.9181 23.7115 36.5249 23.585 36.9104 23.3318C37.2959 23.0786 37.4875 22.632 37.4875 21.9945C37.4875 21.4306 37.2959 21.0186 36.9104 20.7608C36.5249 20.5031 35.9227 20.3741 35.1037 20.3741Z" fill="#1E1E1C"/>
<path d="M40.405 16.291H39.748V24.2524H40.405V16.291Z" fill="#1E1E1C"/>
<path d="M44.4293 16.4865C44.9813 16.2586 45.5995 16.1436 46.2884 16.1436C46.9773 16.1436 47.5978 16.2586 48.1475 16.4865C48.6995 16.7167 49.1398 17.0251 49.4728 17.4118C49.8058 17.8008 50.059 18.2357 50.2324 18.7191C50.4058 19.2024 50.4947 19.7134 50.4947 20.252C50.4947 20.809 50.4081 21.3291 50.2324 21.8171C50.059 22.3028 49.8058 22.7401 49.4728 23.1245C49.1398 23.5088 48.7018 23.8126 48.1543 24.0382C47.6068 24.2637 46.9841 24.3765 46.2884 24.3765C45.5904 24.3765 44.9699 24.2637 44.4224 24.0382C43.875 23.8126 43.4347 23.5088 43.104 23.1245C42.7709 22.7401 42.5177 22.305 42.3443 21.8171C42.171 21.3315 42.082 20.809 42.082 20.252C42.082 19.7134 42.1687 19.2024 42.3443 18.7191C42.5177 18.2357 42.7709 17.8008 43.104 17.4118C43.437 17.0251 43.8772 16.7167 44.4293 16.4865ZM44.3015 23.3063C44.849 23.6584 45.5105 23.8333 46.2884 23.8333C47.0662 23.8333 47.7301 23.6584 48.2752 23.3063C48.8227 22.9541 49.2151 22.5145 49.4545 21.9874C49.6941 21.4604 49.8127 20.8826 49.8127 20.252C49.8127 19.6305 49.6941 19.0574 49.4545 18.5349C49.2151 18.0125 48.8227 17.5728 48.2752 17.2161C47.7277 16.8593 47.0662 16.6821 46.2884 16.6821C45.5105 16.6821 44.8467 16.8593 44.3015 17.2161C43.7541 17.5728 43.3617 18.0125 43.1222 18.5349C42.8827 19.0574 42.7641 19.6305 42.7641 20.252C42.7641 20.8826 42.8827 21.4604 43.1222 21.9874C43.3617 22.5145 43.7541 22.9541 44.3015 23.3063Z" fill="#1E1E1C"/>
<path d="M57.5338 17.2969C56.6669 16.8873 55.8116 16.6847 54.9699 16.6847C54.1988 16.6847 53.5989 16.8205 53.1654 17.0898C52.7321 17.3591 52.5153 17.7228 52.5153 18.1808C52.5153 18.6388 52.6659 18.9772 52.9647 19.1981C53.2635 19.4191 53.7311 19.5986 54.363 19.739L55.8344 20.0589C56.6122 20.2315 57.1803 20.4801 57.5361 20.807C57.8919 21.1338 58.0722 21.5642 58.0722 22.0959C58.0722 22.8163 57.7938 23.3756 57.2395 23.7761C56.6853 24.1766 55.9211 24.3768 54.947 24.3768C53.6262 24.3768 52.5039 24.0569 51.5801 23.4193L51.8242 22.9889C52.7731 23.5528 53.7859 23.836 54.8626 23.836C55.7454 23.836 56.3955 23.6794 56.813 23.3641C57.2304 23.0487 57.4379 22.6437 57.4379 22.1442C57.4379 21.7345 57.3011 21.4077 57.0251 21.1637C56.7491 20.9175 56.3043 20.731 55.6884 20.5998L54.1691 20.2937C53.3662 20.1302 52.7845 19.8817 52.4241 19.5457C52.0637 19.2097 51.8834 18.7654 51.8834 18.2084C51.8834 17.587 52.164 17.0875 52.7229 16.7123C53.2818 16.3372 54.0437 16.1484 55.0086 16.1484C55.9895 16.1484 56.9019 16.3855 57.7436 16.8596L57.5338 17.2969Z" fill="#1E1E1C"/>
<path d="M61.5581 16.4865C62.1102 16.2586 62.7284 16.1436 63.4173 16.1436C64.1062 16.1436 64.7267 16.2586 65.2764 16.4865C65.8284 16.7167 66.2687 17.0251 66.6017 17.4118C66.9347 17.8008 67.1879 18.2357 67.3613 18.7191C67.5347 19.2024 67.6236 19.7134 67.6236 20.252C67.6236 20.809 67.537 21.3291 67.3613 21.8171C67.1879 22.3028 66.9347 22.7401 66.6017 23.1245C66.2687 23.5088 65.8307 23.8126 65.2832 24.0382C64.7357 24.2637 64.113 24.3765 63.4173 24.3765C62.7193 24.3765 62.0988 24.2637 61.5513 24.0382C61.0039 23.8126 60.5636 23.5088 60.2328 23.1245C59.8998 22.7401 59.6466 22.305 59.4732 21.8171C59.2999 21.3315 59.2109 20.809 59.2109 20.252C59.2109 19.7134 59.2976 19.2024 59.4732 18.7191C59.6466 18.2357 59.8998 17.8008 60.2328 17.4118C60.5659 17.0251 61.0061 16.7167 61.5581 16.4865ZM61.4304 23.3063C61.9779 23.6584 62.6394 23.8333 63.4173 23.8333C64.1951 23.8333 64.859 23.6584 65.4041 23.3063C65.9516 22.9541 66.344 22.5145 66.5834 21.9874C66.823 21.4604 66.9416 20.8826 66.9416 20.252C66.9416 19.6305 66.823 19.0574 66.5834 18.5349C66.344 18.0125 65.9516 17.5728 65.4041 17.2161C64.8566 16.8593 64.1951 16.6821 63.4173 16.6821C62.6394 16.6821 61.9756 16.8593 61.4304 17.2161C60.883 17.5728 60.4906 18.0125 60.2511 18.5349C60.0116 19.0574 59.893 19.6305 59.893 20.252C59.893 20.8826 60.0116 21.4604 60.2511 21.9874C60.4906 22.5145 60.883 22.9541 61.4304 23.3063Z" fill="#1E1E1C"/>
<path d="M74.8087 24.2524H69.2656V16.291H69.9226V23.7115H74.8087V24.2524Z" fill="#1E1E1C"/>
<path d="M79.2454 24.3744C78.2074 24.3744 77.3974 24.1282 76.8132 23.6379C76.1494 23.0901 75.8164 22.2109 75.8164 21.0002V16.291H76.4734V20.9887C76.4734 22.0106 76.7292 22.7541 77.2399 23.2213C77.7012 23.6379 78.3717 23.8473 79.2454 23.8473C80.1214 23.8473 80.7897 23.6379 81.2502 23.2213C81.7609 22.7541 82.0167 22.0106 82.0167 20.9887V16.291H82.6737V21.0002C82.6737 22.2109 82.3407 23.0901 81.6769 23.6379C81.0927 24.1282 80.2834 24.3744 79.2454 24.3744Z" fill="#1E1E1C"/>
<path d="M84.0117 16.291H91.1855V16.8296H87.8052V24.2524H87.1482V16.8296H84.0117V16.291Z" fill="#1E1E1C"/>
<path d="M93.2625 16.291H92.6055V24.2524H93.2625V16.291Z" fill="#1E1E1C"/>
<path d="M97.287 16.4865C97.839 16.2586 98.457 16.1436 99.1462 16.1436C99.8347 16.1436 100.456 16.2586 101.005 16.4865C101.557 16.7167 101.998 17.0251 102.331 17.4118C102.664 17.8008 102.916 18.2357 103.09 18.7191C103.264 19.2024 103.352 19.7134 103.352 20.252C103.352 20.809 103.266 21.3291 103.09 21.8171C102.916 22.3028 102.664 22.7401 102.331 23.1245C101.998 23.5088 101.56 23.8126 101.012 24.0382C100.465 24.2637 99.8422 24.3765 99.1462 24.3765C98.448 24.3765 97.8277 24.2637 97.2802 24.0382C96.7327 23.8126 96.2925 23.5088 95.9617 23.1245C95.6287 22.7401 95.3752 22.305 95.202 21.8171C95.0287 21.3315 94.9395 20.809 94.9395 20.252C94.9395 19.7134 95.0265 19.2024 95.202 18.7191C95.3752 18.2357 95.6287 17.8008 95.9617 17.4118C96.2947 17.0251 96.735 16.7167 97.287 16.4865ZM97.1595 23.3063C97.707 23.6584 98.3685 23.8333 99.1462 23.8333C99.924 23.8333 100.588 23.6584 101.133 23.3063C101.68 22.9541 102.073 22.5145 102.313 21.9874C102.552 21.4604 102.67 20.8826 102.67 20.252C102.67 19.6305 102.552 19.0574 102.313 18.5349C102.073 18.0125 101.68 17.5728 101.133 17.2161C100.585 16.8593 99.924 16.6821 99.1462 16.6821C98.3685 16.6821 97.7047 16.8593 97.1595 17.2161C96.612 17.5728 96.2197 18.0125 95.9797 18.5349C95.7405 19.0574 95.622 19.6305 95.622 20.252C95.622 20.8826 95.7405 21.4604 95.9797 21.9874C96.2197 22.5145 96.612 22.9541 97.1595 23.3063Z" fill="#1E1E1C"/>
<path d="M112.068 16.291V24.2524H111.473L105.601 17.1012V24.2524H104.994V16.291H105.674L111.461 23.3064V16.291H112.068Z" fill="#1E1E1C"/>
<path d="M116.873 24.3744C115.552 24.3744 114.43 24.0544 113.506 23.4169L113.75 22.9865C114.699 23.5504 115.712 23.8335 116.789 23.8335C117.671 23.8335 118.321 23.677 118.739 23.3617C119.156 23.0463 119.363 22.6412 119.363 22.1418C119.363 21.7321 119.227 21.4053 118.951 21.1613C118.675 20.915 118.23 20.7286 117.614 20.5974L116.095 20.2913C115.292 20.1279 114.71 19.8793 114.35 19.5433C113.99 19.2072 113.809 18.763 113.809 18.206C113.809 17.5845 114.089 17.0851 114.649 16.7099C115.208 16.3347 115.97 16.146 116.934 16.146C117.915 16.146 118.828 16.3831 119.669 16.8572L119.462 17.2991C118.595 16.8894 117.74 16.6869 116.897 16.6869C116.126 16.6869 115.527 16.8227 115.094 17.092C114.66 17.3613 114.443 17.7249 114.443 18.183C114.443 18.641 114.594 18.9793 114.893 19.2003C115.191 19.4212 115.659 19.6008 116.291 19.7412L117.762 20.0611C118.54 20.2338 119.108 20.4823 119.464 20.8091C119.82 21.136 120 21.5664 120 22.098C120 22.8185 119.722 23.3778 119.168 23.7782C118.609 24.1741 117.845 24.3744 116.873 24.3744Z" fill="#1E1E1C"/>
<path d="M32.1933 31.8594C31.8123 31.5119 31.623 31.0608 31.623 30.5061C31.623 29.9514 31.8237 29.498 32.2275 29.1435C32.6313 28.789 33.1582 28.6118 33.8083 28.6118C34.4676 28.6118 35.0287 28.7914 35.494 29.1504L35.3161 29.3576C34.8553 29.0238 34.3512 28.8582 33.8015 28.8582C33.2608 28.8582 32.8183 29.0146 32.4762 29.3253C32.134 29.6361 31.9629 30.0297 31.9629 30.5038C31.9629 31.001 32.1271 31.3968 32.4556 31.6915C32.7841 31.9861 33.2358 32.131 33.8151 32.131C34.3809 32.131 34.885 31.9769 35.3298 31.6661L35.494 31.8572C35.0173 32.2047 34.4607 32.3796 33.8197 32.3796C33.1171 32.382 32.5743 32.207 32.1933 31.8594Z" fill="#1E1E1C"/>
<path d="M37.4377 29.613L37.6886 29.6084V29.8224L37.4559 29.8271C37.1046 29.8339 36.8446 29.9099 36.6712 30.0549C36.4979 30.1999 36.4112 30.4232 36.4112 30.727V32.3267H36.1055V30.7201C36.1055 30.0043 36.5503 29.636 37.4377 29.613Z" fill="#1E1E1C"/>
<path d="M40.74 31.8043L40.8815 31.9724C40.5074 32.2462 40.0694 32.382 39.5675 32.382C39.0634 32.382 38.6642 32.2578 38.3699 32.0069C38.0757 31.7514 37.9297 31.4039 37.9297 30.9619C37.9297 30.7962 37.9616 30.6328 38.0255 30.4717C38.0894 30.3083 38.1829 30.1586 38.3061 30.0206C38.4293 29.8825 38.5958 29.7697 38.8034 29.6845C39.011 29.5994 39.2482 29.5557 39.5128 29.5557C40.0101 29.5557 40.3933 29.6868 40.667 29.9492C40.9226 30.184 41.0525 30.5476 41.0525 31.0379V31.0609H38.249C38.2604 31.3947 38.3882 31.6594 38.6277 31.8573C38.8718 32.0529 39.1866 32.1496 39.5744 32.1496C40.0261 32.1473 40.4138 32.0322 40.74 31.8043ZM39.5128 29.7881C39.1798 29.7881 38.8946 29.8802 38.6574 30.0643C38.4201 30.2484 38.2856 30.4993 38.249 30.8216H40.7355V30.794C40.7355 30.52 40.6374 30.2875 40.4412 30.0988C40.2336 29.8917 39.9234 29.7881 39.5128 29.7881Z" fill="#1E1E1C"/>
<path d="M44.5742 32.3266V31.6637C44.4647 31.8801 44.2913 32.055 44.0541 32.1862C43.8168 32.3174 43.5385 32.3818 43.2169 32.3818C42.7082 32.3818 42.3113 32.246 42.0261 31.9768C41.7411 31.7074 41.5996 31.3737 41.5996 30.9778C41.5996 30.5704 41.7501 30.2298 42.0513 29.9582C42.3524 29.6866 42.7561 29.5508 43.2603 29.5508C43.7689 29.5508 44.1727 29.6935 44.4693 29.9766C44.7384 30.2436 44.873 30.575 44.873 30.9755V32.322H44.5742V32.3266ZM43.2123 32.1471C43.5864 32.1471 43.9035 32.0365 44.1658 31.8156C44.4305 31.59 44.5628 31.3115 44.5628 30.9801C44.5628 30.6326 44.4487 30.3495 44.2206 30.1331C43.9674 29.9076 43.6434 29.797 43.2489 29.797C42.8337 29.797 42.5075 29.9076 42.2725 30.1285C42.0353 30.3495 41.919 30.6349 41.919 30.9824C41.919 31.3346 42.033 31.6176 42.2634 31.8295C42.4938 32.0389 42.8109 32.1471 43.2123 32.1471Z" fill="#1E1E1C"/>
<path d="M46.8906 29.8271H45.9987V31.2196C45.9987 31.5373 46.0557 31.7651 46.1698 31.8986C46.2747 32.0183 46.4663 32.0966 46.7446 32.1333L46.9042 32.1563L46.8792 32.3635L46.6898 32.3474C46.3272 32.3175 46.0717 32.2209 45.9211 32.0574C45.7705 31.894 45.6953 31.6224 45.6953 31.2403V28.6924H46.0009V29.6085H46.8928V29.8271H46.8906Z" fill="#1E1E1C"/>
<path d="M47.9894 30.1123V32.3242H47.6837V30.1123C47.6837 30.0064 47.6609 29.935 47.613 29.8959C47.5651 29.8568 47.4853 29.8338 47.3712 29.8268L47.2617 29.8223V29.6036L47.4146 29.6083C47.613 29.6151 47.759 29.6589 47.8502 29.7348C47.9438 29.8107 47.9894 29.9374 47.9894 30.1123ZM47.9392 28.7635C47.9871 28.8095 48.0122 28.8648 48.0122 28.9246C48.0122 28.9844 47.9871 29.0374 47.9369 29.0811C47.8868 29.1272 47.8274 29.1479 47.7635 29.1479C47.6974 29.1479 47.6404 29.1248 47.5902 29.0811C47.54 29.0374 47.5149 28.9844 47.5149 28.9246C47.5149 28.8648 47.54 28.8119 47.5879 28.7635C47.6358 28.7175 47.6951 28.6945 47.7659 28.6945C47.832 28.6922 47.8913 28.7152 47.9392 28.7635Z" fill="#1E1E1C"/>
<path d="M50.2733 29.5532C50.6771 29.5532 51.0056 29.6453 51.2633 29.8294C51.5576 30.0389 51.7036 30.3565 51.7036 30.7846V32.329H51.3979V30.7846C51.3979 30.444 51.2861 30.1862 51.0626 30.009C50.8664 29.8639 50.6041 29.7903 50.2756 29.7903C49.9448 29.7903 49.6826 29.8639 49.4886 30.009C49.2651 30.1839 49.1533 30.444 49.1533 30.7846V32.329H48.8477V30.7846C48.8477 30.3588 48.9936 30.0389 49.2879 29.8294C49.5411 29.643 49.8696 29.5532 50.2733 29.5532Z" fill="#1E1E1C"/>
<path d="M55.3903 31.7259H55.3652C55.2466 31.917 55.0709 32.0712 54.8405 32.1863C54.6079 32.3014 54.3341 32.3613 54.017 32.3613C53.5198 32.3613 53.1297 32.23 52.8446 31.9654C52.5594 31.7007 52.418 31.3692 52.418 30.9687C52.418 30.5798 52.5662 30.246 52.8628 29.9698C53.1593 29.6936 53.5654 29.5532 54.0786 29.5532C54.5828 29.5532 54.9797 29.689 55.2671 29.9583C55.5545 30.2276 55.6982 30.5982 55.6982 31.07V31.6753C55.6982 32.2208 55.5568 32.6305 55.274 32.9021C54.9911 33.1737 54.5075 33.3325 53.8232 33.3762L53.6589 33.3877L53.6338 33.1806L53.7798 33.1691C54.3935 33.1208 54.8177 32.9827 55.0481 32.7525C55.2762 32.5247 55.3903 32.1817 55.3903 31.7259ZM54.0239 32.1242C54.4071 32.1242 54.7288 32.0206 54.9888 31.8088C55.2488 31.5994 55.3789 31.3209 55.3789 30.9733C55.3789 30.6097 55.2602 30.3219 55.0253 30.1079C54.788 29.8938 54.471 29.788 54.0718 29.788C53.6657 29.788 53.3396 29.9008 53.0978 30.1286C52.856 30.3542 52.7351 30.635 52.7351 30.9687C52.7351 31.3209 52.8514 31.6017 53.0864 31.8111C53.319 32.0183 53.6315 32.1242 54.0239 32.1242Z" fill="#1E1E1C"/>
<path d="M60.2705 32.3266H59.7208C58.9589 31.2517 58.3339 30.0388 57.8457 28.6831H58.6213C58.9634 29.6866 59.4242 30.628 60.0014 31.5072C60.5625 30.6602 61.0165 29.7188 61.3632 28.6831H62.1456C61.6552 30.0364 61.0301 31.2517 60.2705 32.3266Z" fill="#2876AF"/>
<path d="M62.1289 30.9732C62.1289 30.5474 62.2772 30.2022 62.5737 29.9421C62.8703 29.682 63.2604 29.5508 63.7394 29.5508C64.248 29.5508 64.6473 29.682 64.9369 29.9443C65.2266 30.2068 65.3703 30.5497 65.3703 30.9709V32.3243H64.6746V31.9491H64.6563C64.5788 32.0803 64.4511 32.1838 64.2708 32.2644C64.0907 32.3427 63.8922 32.3818 63.6732 32.3818C63.1965 32.3818 62.8201 32.246 62.544 31.9744C62.2658 31.7028 62.1289 31.3691 62.1289 30.9732ZM63.0687 30.3909C62.9136 30.5497 62.836 30.7407 62.836 30.9663C62.836 31.1919 62.9113 31.3829 63.0642 31.5417C63.217 31.7005 63.4428 31.7811 63.744 31.7811C64.045 31.7811 64.2732 31.7028 64.4305 31.5463C64.5879 31.3898 64.6655 31.1965 64.6655 30.9686C64.6655 30.7431 64.5879 30.552 64.4328 30.3932C64.2777 30.2344 64.0496 30.1538 63.7485 30.1538C63.4474 30.1538 63.2238 30.2321 63.0687 30.3909Z" fill="#2876AF"/>
<path d="M67.3174 32.4049L67.0436 32.3819C66.7265 32.3565 66.4939 32.2644 66.3478 32.1103C66.2019 31.9561 66.1289 31.719 66.1289 31.4059V28.6831H66.8246V31.3944C66.8246 31.5372 66.8497 31.6407 66.9022 31.7098C66.9523 31.7765 67.0368 31.8225 67.1554 31.8456L67.3995 31.8916L67.3174 32.4049Z" fill="#2876AF"/>
<path d="M69.2033 31.8087C69.4566 31.8087 69.639 31.7535 69.7554 31.6407C69.8717 31.5279 69.9287 31.353 69.9287 31.1136V29.6084H70.6245V31.1459C70.6245 31.5625 70.5013 31.8709 70.2549 32.0757C70.0086 32.2806 69.6573 32.3818 69.201 32.3818C68.268 32.3818 67.8027 31.9699 67.8027 31.1459V29.6084H68.4984V31.1136C68.4984 31.353 68.5555 31.5303 68.6673 31.6407C68.7813 31.7535 68.9592 31.8087 69.2033 31.8087Z" fill="#2876AF"/>
<path d="M73.9625 31.5162L74.25 32.0042C73.8759 32.2551 73.4219 32.3794 72.8881 32.3794C72.3909 32.3794 71.9985 32.2458 71.7088 31.9812C71.4191 31.7165 71.2754 31.3759 71.2754 30.9639C71.2754 30.8073 71.305 30.6485 71.3666 30.4897C71.4282 30.3309 71.5172 30.179 71.6381 30.0339C71.759 29.889 71.9232 29.7739 72.1353 29.6841C72.3475 29.5944 72.587 29.5483 72.8562 29.5483C73.3398 29.5483 73.7184 29.6796 73.9899 29.9442C74.2614 30.2089 74.3959 30.5611 74.3959 31.003V31.1664H72.0144C72.0396 31.3574 72.1377 31.5071 72.3087 31.6152C72.4798 31.7234 72.6988 31.7786 72.968 31.7786C73.3329 31.7809 73.6659 31.6935 73.9625 31.5162ZM72.8516 30.1191C72.6486 30.1191 72.4752 30.1675 72.3315 30.2619C72.1901 30.3562 72.092 30.492 72.0372 30.6623H73.6317C73.6021 30.4943 73.5177 30.3608 73.3763 30.2641C73.2326 30.1675 73.0592 30.1191 72.8516 30.1191Z" fill="#2876AF"/>
<path d="M74.9715 32.9159L74.8301 32.741C74.9646 32.6558 75.0585 32.5592 75.1132 32.4555C75.168 32.3497 75.195 32.2093 75.195 32.0344V31.8203H75.5302V31.9999C75.5325 32.4004 75.3457 32.7065 74.9715 32.9159Z" fill="#1E1E1C"/>
<path d="M79.7025 32.3821C79.0388 32.3821 78.4755 32.237 78.0098 31.9447L78.1328 31.7491C78.6098 32.0069 79.1183 32.1358 79.659 32.1358C80.1038 32.1358 80.43 32.0645 80.64 31.9194C80.85 31.7744 80.955 31.588 80.955 31.3601C80.955 31.1737 80.8868 31.0241 80.7473 30.9113C80.6078 30.7986 80.3843 30.7134 80.0768 30.6535L79.3125 30.5131C78.909 30.4372 78.6165 30.3244 78.4365 30.1702C78.2565 30.0159 78.165 29.8134 78.165 29.5579C78.165 29.2725 78.3068 29.0447 78.5873 28.872C78.8678 28.6995 79.251 28.6143 79.7348 28.6143C80.2275 28.6143 80.6858 28.7225 81.108 28.9388L81.0053 29.1414C80.5695 28.9549 80.1405 28.8605 79.716 28.8605C79.3283 28.8605 79.0275 28.9227 78.8085 29.047C78.5918 29.1713 78.4823 29.337 78.4823 29.5464C78.4823 29.7559 78.5573 29.9124 78.708 30.0114C78.8588 30.1126 79.0935 30.1955 79.4108 30.2576L80.1495 30.4027C80.5395 30.4809 80.8245 30.596 81.0053 30.7456C81.1853 30.8952 81.2745 31.0908 81.2745 31.3348C81.2745 31.664 81.135 31.9217 80.8568 32.1036C80.5763 32.29 80.193 32.3821 79.7025 32.3821Z" fill="#1E1E1C"/>
<path d="M83.2816 32.3818C82.8984 32.3818 82.5886 32.3036 82.3464 32.1471C82.0704 31.9675 81.9316 31.6453 81.9316 31.1804V29.6084H82.2369V31.1528C82.2369 31.3576 82.2579 31.521 82.3006 31.6384C82.3441 31.7558 82.4199 31.8571 82.5294 31.9377C82.7049 32.0757 82.9554 32.1448 83.2794 32.1448C83.6056 32.1448 83.8569 32.0757 84.0301 31.9377C84.1396 31.8548 84.2169 31.7558 84.2581 31.6384C84.3016 31.521 84.3219 31.3576 84.3219 31.1528V29.6084H84.6279V31.1804C84.6279 31.6453 84.4884 31.9675 84.2124 32.1471C83.9776 32.3036 83.6649 32.3818 83.2816 32.3818Z" fill="#1E1E1C"/>
<path d="M86.6045 32.3819C86.0863 32.3819 85.646 32.2761 85.2793 32.062L85.3768 31.8663C85.7645 32.0574 86.162 32.1518 86.5678 32.1518C87.2023 32.1518 87.521 31.9723 87.521 31.6132C87.521 31.3623 87.2998 31.1989 86.855 31.1252L86.2985 31.0309C85.9655 30.971 85.7263 30.8813 85.58 30.7638C85.436 30.6465 85.3633 30.49 85.3633 30.2943C85.3633 30.0619 85.4773 29.88 85.7075 29.7489C85.9385 29.6177 86.2348 29.5532 86.5978 29.5532C86.981 29.5532 87.3365 29.6361 87.6673 29.7995L87.569 29.986C87.236 29.8502 86.9098 29.7834 86.5925 29.7834C86.312 29.7834 86.0908 29.8294 85.9265 29.9192C85.7645 30.009 85.6828 30.1309 85.6828 30.2852C85.6828 30.4416 85.7465 30.5613 85.8718 30.6442C85.9858 30.7156 86.15 30.7685 86.3668 30.8007L86.9098 30.8905C87.2225 30.9503 87.4505 31.0354 87.5945 31.146C87.7355 31.2564 87.809 31.4061 87.809 31.5971C87.809 31.8411 87.704 32.0321 87.4918 32.1725C87.2773 32.3129 86.9833 32.3819 86.6045 32.3819Z" fill="#1E1E1C"/>
<path d="M89.6447 29.8271H88.753V31.2196C88.753 31.5373 88.81 31.7651 88.924 31.8986C89.029 32.0183 89.2202 32.0966 89.4985 32.1333L89.6582 32.1563L89.6335 32.3635L89.4437 32.3474C89.0815 32.3175 88.8257 32.2209 88.675 32.0574C88.5242 31.894 88.4492 31.6224 88.4492 31.2403V28.6924H88.7552V29.6085H89.647V29.8271H89.6447Z" fill="#1E1E1C"/>
<path d="M92.9667 32.3266V31.6637C92.8572 31.88 92.6839 32.055 92.4469 32.1861C92.2099 32.3173 91.9317 32.3818 91.6099 32.3818C91.1007 32.3818 90.7039 32.246 90.4189 31.9767C90.1339 31.7074 89.9922 31.3736 89.9922 30.9777C89.9922 30.5704 90.1429 30.2297 90.4437 29.9581C90.7452 29.6866 91.1487 29.5508 91.6527 29.5508C92.1619 29.5508 92.5654 29.6934 92.8617 29.9765C93.1309 30.2435 93.2659 30.575 93.2659 30.9755V32.3219H92.9667V32.3266ZM91.6054 32.147C91.9789 32.147 92.2962 32.0365 92.5587 31.8155C92.8234 31.59 92.9554 31.3115 92.9554 30.9801C92.9554 30.6325 92.8414 30.3494 92.6134 30.1331C92.3599 29.9075 92.0359 29.797 91.6414 29.797C91.2267 29.797 90.9004 29.9075 90.6649 30.1285C90.4279 30.3494 90.3117 30.6349 90.3117 30.9824C90.3117 31.3345 90.4257 31.6176 90.6559 31.8294C90.8869 32.0388 91.2012 32.147 91.6054 32.147Z" fill="#1E1E1C"/>
<path d="M94.5673 30.1123V32.3242H94.2621V30.1123C94.2621 30.0064 94.2388 29.935 94.1908 29.8959C94.1436 29.8568 94.0633 29.8338 93.9493 29.8268L93.8398 29.8223V29.6036L93.9928 29.6083C94.1908 29.6151 94.3371 29.6589 94.4286 29.7348C94.5193 29.8107 94.5673 29.9374 94.5673 30.1123ZM94.5171 28.7635C94.5651 28.8095 94.5906 28.8648 94.5906 28.9246C94.5906 28.9844 94.5651 29.0374 94.5148 29.0811C94.4646 29.1272 94.4053 29.1479 94.3416 29.1479C94.2756 29.1479 94.2186 29.1248 94.1683 29.0811C94.1181 29.0374 94.0933 28.9844 94.0933 28.9246C94.0933 28.8648 94.1181 28.8119 94.1661 28.7635C94.2141 28.7175 94.2733 28.6945 94.3438 28.6945C94.4098 28.6922 94.4698 28.7152 94.5171 28.7635Z" fill="#1E1E1C"/>
<path d="M96.8515 29.5532C97.255 29.5532 97.5835 29.6453 97.8415 29.8294C98.1355 30.0389 98.2818 30.3565 98.2818 30.7846V32.329H97.9758V30.7846C97.9758 30.444 97.864 30.1862 97.6405 30.009C97.4448 29.8639 97.1823 29.7903 96.8538 29.7903C96.523 29.7903 96.2605 29.8639 96.067 30.009C95.8428 30.1839 95.731 30.444 95.731 30.7846V32.329H95.4258V30.7846C95.4258 30.3588 95.572 30.0389 95.866 29.8294C96.1188 29.643 96.4473 29.5532 96.8515 29.5532Z" fill="#1E1E1C"/>
<path d="M99.5673 30.1126V32.3245H99.2621V30.1126C99.2621 30.0067 99.2388 29.9354 99.1908 29.8963C99.1436 29.8572 99.0633 29.8342 98.9493 29.8272L98.8398 29.8227V29.604L98.9928 29.6086C99.1916 29.6155 99.3371 29.6592 99.4286 29.7351C99.5223 29.8112 99.5673 29.9377 99.5673 30.1126ZM99.5193 28.7639C99.5673 28.8099 99.5928 28.8651 99.5928 28.925C99.5928 28.9848 99.5673 29.0378 99.5171 29.0815C99.4676 29.1275 99.4076 29.1482 99.3438 29.1482C99.2778 29.1482 99.2208 29.1252 99.1706 29.0815C99.1203 29.0378 99.0956 28.9848 99.0956 28.925C99.0956 28.8651 99.1203 28.8122 99.1683 28.7639C99.2163 28.7178 99.2756 28.6948 99.3461 28.6948C99.4173 28.6948 99.4698 28.7155 99.5193 28.7639Z" fill="#1E1E1C"/>
<path d="M101.852 29.5532C102.255 29.5532 102.584 29.6453 102.842 29.8294C103.136 30.0389 103.282 30.3565 103.282 30.7846V32.329H102.976V30.7846C102.976 30.444 102.864 30.1862 102.641 30.009C102.445 29.8639 102.182 29.7903 101.854 29.7903C101.523 29.7903 101.261 29.8639 101.067 30.009C100.843 30.1839 100.731 30.444 100.731 30.7846V32.329H100.426V30.7846C100.426 30.3588 100.572 30.0389 100.866 29.8294C101.119 29.643 101.45 29.5532 101.852 29.5532Z" fill="#1E1E1C"/>
<path d="M106.97 31.7259H106.946C106.826 31.917 106.651 32.0712 106.421 32.1863C106.188 32.3014 105.914 32.3613 105.597 32.3613C105.1 32.3613 104.71 32.23 104.425 31.9654C104.14 31.7007 103.998 31.3692 103.998 30.9687C103.998 30.5798 104.147 30.246 104.443 29.9698C104.74 29.6936 105.146 29.5532 105.659 29.5532C106.163 29.5532 106.56 29.689 106.847 29.9583C107.135 30.2276 107.279 30.5982 107.279 31.07V31.6753C107.279 32.2208 107.137 32.6305 106.854 32.9021C106.571 33.1737 106.088 33.3325 105.404 33.3762L105.239 33.3877L105.214 33.1806L105.36 33.1691C105.974 33.1208 106.398 32.9827 106.628 32.7525C106.854 32.5247 106.97 32.1817 106.97 31.7259ZM105.602 32.1242C105.985 32.1242 106.307 32.0206 106.567 31.8088C106.826 31.5994 106.957 31.3209 106.957 30.9733C106.957 30.6097 106.838 30.3219 106.603 30.1079C106.366 29.8938 106.049 29.788 105.65 29.788C105.244 29.788 104.918 29.9008 104.675 30.1286C104.434 30.3542 104.313 30.635 104.313 30.9687C104.313 31.3209 104.429 31.6017 104.664 31.8111C104.899 32.0183 105.212 32.1242 105.602 32.1242Z" fill="#1E1E1C"/>
<path d="M112.693 32.3266H109.732V28.6831H110.478V31.7029H112.695V32.3266H112.693Z" fill="#D8DD48"/>
<path d="M112.949 29.6015L113.248 29.6061C113.512 29.6131 113.702 29.666 113.816 29.7626C113.93 29.8593 113.987 30.025 113.987 30.2575V32.3244H113.291V30.3357C113.291 30.2275 113.236 30.17 113.127 30.1678L112.949 30.1631V29.6015ZM113.884 28.6947C113.969 28.7707 114.012 28.865 114.012 28.9732C114.012 29.0814 113.969 29.1757 113.884 29.254C113.8 29.3322 113.695 29.3714 113.572 29.3714C113.453 29.3714 113.353 29.3322 113.269 29.254C113.184 29.1757 113.143 29.0814 113.143 28.9732C113.143 28.865 113.186 28.7729 113.271 28.6947C113.355 28.6187 113.455 28.5796 113.569 28.5796C113.695 28.5819 113.798 28.6187 113.884 28.6947Z" fill="#D8DD48"/>
<path d="M116.438 29.141L115.997 29.1641C115.799 29.1756 115.66 29.217 115.582 29.2907C115.505 29.3643 115.466 29.4702 115.466 29.6083H116.357V30.1929H115.466V32.3266H114.77V29.7096C114.77 29.316 114.868 29.0375 115.062 28.8741C115.258 28.7084 115.582 28.6186 116.038 28.6048L116.392 28.5933L116.438 29.141Z" fill="#D8DD48"/>
<path d="M119.306 31.5162L119.594 32.0042C119.219 32.2551 118.766 32.3794 118.232 32.3794C117.734 32.3794 117.342 32.2458 117.053 31.9812C116.762 31.7165 116.619 31.3759 116.619 30.9639C116.619 30.8073 116.648 30.6485 116.71 30.4897C116.771 30.3309 116.861 30.179 116.981 30.0339C117.102 29.889 117.266 29.7739 117.479 29.6841C117.691 29.5944 117.931 29.5483 118.199 29.5483C118.683 29.5483 119.062 29.6796 119.333 29.9442C119.605 30.2089 119.739 30.5611 119.739 31.003V31.1664H117.358C117.383 31.3574 117.481 31.5071 117.652 31.6152C117.824 31.7234 118.043 31.7786 118.311 31.7786C118.676 31.7809 119.009 31.6935 119.306 31.5162ZM118.195 30.1191C117.992 30.1191 117.818 30.1675 117.675 30.2619C117.533 30.3562 117.436 30.492 117.381 30.6623H118.976C118.948 30.4943 118.861 30.3608 118.72 30.2641C118.576 30.1675 118.403 30.1191 118.195 30.1191Z" fill="#D8DD48"/>
</g>
<defs>
<clipPath id="clip0_73_2012">
<rect width="120" height="33.8372" fill="white"/>
</clipPath>
</defs>
</svg>
