<svg width="148" height="42" viewBox="0 0 148 42" fill="none" xmlns="http://www.w3.org/2000/svg">
<path fill-rule="evenodd" clip-rule="evenodd" d="M48.5937 0C48.8699 0 49.0937 0.223858 49.0937 0.5V40.6429C49.0937 40.919 48.8699 41.1429 48.5937 41.1429C48.3176 41.1429 48.0938 40.919 48.0938 40.6429V0.5C48.0938 0.223858 48.3176 0 48.5937 0Z" fill="#023460"/>
<path d="M31.3189 12.9947C31.3189 14.1038 31.26 15.0853 31.1422 15.949C31.0932 16.3023 31.0441 16.636 30.9754 16.9501V16.9599C30.7889 17.8727 30.3374 18.7069 29.6602 19.3449C29.0811 19.8945 28.3548 20.2969 27.55 20.4932C27.1869 20.5816 26.8139 20.6306 26.4311 20.6306C25.9011 20.6306 25.3908 20.5423 24.9197 20.3853L24.8117 20.346C21.7593 19.2467 18.6677 17.2445 15.684 16.3121C15.2521 16.1747 14.8105 16.0668 14.3786 15.9784C14.1136 15.9294 13.8486 15.8803 13.5738 15.8607C13.3873 15.8508 13.2009 15.841 13.0144 15.841C11.6501 15.841 10.3742 16.2042 9.26513 16.8225C9.08847 16.9403 8.9118 17.0581 8.73514 17.1955C8.69588 17.2249 8.65662 17.2544 8.61736 17.2838C7.52792 18.0493 6.65441 19.0897 6.10478 20.3166C6.04589 20.4441 5.987 20.5816 5.93793 20.719C5.63367 21.514 5.45701 22.3678 5.43738 23.2708C5.41775 23.4278 5.40793 23.5751 5.39812 23.7321C5.34904 24.478 5.36867 25.2534 5.43738 26.0287C5.48645 28.3254 5.86923 30.5435 6.54644 32.6341C6.89978 33.7235 7.19422 34.8228 7.39051 35.9417C7.42977 36.1772 7.46903 36.403 7.49848 36.6287C7.49848 36.6287 7.49848 36.6287 7.49848 36.6385C7.51811 36.7465 7.52792 36.8446 7.53774 36.9526V36.9624C7.54755 37.0802 7.55737 37.1979 7.55737 37.3157C7.55737 37.3354 7.55737 37.3648 7.55737 37.3844V37.4139C7.53774 39.475 5.86923 41.1337 3.80813 41.1337C2.67943 41.1337 1.67832 40.6429 0.981476 39.8577C0.647774 39.475 0.382776 39.0235 0.225739 38.5328C0.107962 38.1696 0.0490738 37.7868 0.0490738 37.3942C0.0294443 37.0998 0.0294443 36.8544 0.0294443 36.6974C0.0294443 36.6778 0.0294443 36.6679 0.0294443 36.6581C0.0294443 36.5404 0.0294443 36.4324 0.0294443 36.3146C0.0196295 35.8926 0 34.8031 0 33.2426C0 24.6154 0.00981476 14.8694 0.00981476 6.17348C0.00981476 5.77108 0.00981476 5.39812 0.00981476 5.06442V5.0546V5.02516C0.00981476 4.89757 0.00981476 4.77979 0.00981476 4.66201C0.00981476 4.24979 0.0588886 3.83757 0.166851 3.44498C0.726292 1.45258 2.55184 0 4.71108 0C8.59773 0 18.3242 0 18.3242 0C18.3242 0 18.3536 0 18.4027 0C18.7167 0.00981476 19.0406 0.0196295 19.3547 0.0196295C19.3547 0.0196295 19.3547 0.0196295 19.3645 0.0196295C22.1225 0.0196295 24.6645 0.961846 26.6863 2.54202C29.248 4.54423 30.9656 7.58681 31.2109 11.022C31.2796 11.6403 31.3189 12.2979 31.3189 12.9947Z" fill="#023460"/>
<path d="M9.69922 28.1467C9.69922 27.0377 9.75811 26.0562 9.87588 25.1925C9.92496 24.8392 9.97403 24.5055 10.0427 24.1914V24.1816C10.2292 23.2688 10.6807 22.4345 11.3579 21.7966C11.937 21.247 12.6633 20.8445 13.4681 20.6483C13.8312 20.5599 14.2042 20.5108 14.587 20.5108C15.117 20.5108 15.6273 20.5992 16.0984 20.7562L16.2064 20.7955C19.2588 21.8947 22.3504 23.8969 25.3341 24.8293C25.766 24.9667 26.2076 25.0747 26.6395 25.163C26.9045 25.2121 27.1695 25.2612 27.4443 25.2808C27.6308 25.2906 27.8173 25.3004 27.9939 25.3004C29.3582 25.3004 30.6341 24.9373 31.7432 24.319C31.9198 24.2012 32.0965 24.0834 32.2732 23.946C32.3124 23.9166 32.3517 23.8871 32.3909 23.8577C33.4804 23.0921 34.3539 22.0518 34.9035 20.8249C34.9624 20.6973 35.0213 20.5599 35.0704 20.4225C35.3746 19.6275 35.5513 18.7736 35.5709 17.8707C35.5906 17.7136 35.6004 17.5664 35.6102 17.4094C35.6593 16.6635 35.6396 15.8881 35.5709 15.1127C35.5219 12.8161 35.1391 10.5979 34.4619 8.5074C34.1085 7.41796 33.8141 6.3187 33.6178 5.19982C33.5785 4.96427 33.5393 4.73853 33.5098 4.51279C33.5098 4.51279 33.5098 4.51279 33.5098 4.50297C33.4902 4.39501 33.4804 4.29686 33.4706 4.1889V4.17909C33.4608 4.06131 33.4509 3.94353 33.4509 3.82575C33.4509 3.80613 33.4509 3.77668 33.4509 3.75705V3.72761C33.4706 1.66651 35.1391 0.0078125 37.2002 0.0078125C38.3289 0.0078125 39.33 0.498551 40.0268 1.28373C40.3605 1.66651 40.6255 2.11799 40.7826 2.60872C40.9003 2.97187 40.9592 3.35465 40.9592 3.74724V3.75705C40.9789 4.05149 40.9789 4.29686 40.9789 4.4539C40.9789 4.57168 40.969 4.65019 40.969 4.65019C40.969 4.65019 41.0083 5.88685 41.0083 7.91851C41.0083 16.5457 40.9985 26.2917 40.9985 34.9876C40.9985 35.39 40.9985 35.763 40.9985 36.0967V36.1065C40.9985 36.5383 40.9887 36.9113 40.9887 37.2156C40.9887 37.3137 40.9789 37.4119 40.9592 37.5002C40.5765 39.5711 38.7509 41.1415 36.572 41.1415C32.8915 41.1415 22.6841 41.1415 22.6841 41.1415C22.6841 41.1415 22.4977 41.1415 22.164 41.112C21.9873 41.1218 21.8106 41.1218 21.634 41.1218C18.876 41.1218 16.334 40.1796 14.3122 38.5994C11.7505 36.5972 10.0329 33.5547 9.78755 30.1195C9.73848 29.5012 9.69922 28.8436 9.69922 28.1467Z" fill="#023460"/>
<path d="M61.0653 4.53969C61.0653 4.07636 60.9085 3.74333 60.5949 3.54063C60.3688 3.39583 60.0917 3.32344 59.7635 3.32344H58.2756V5.75594H59.7306C60.0953 5.75594 60.3761 5.69078 60.573 5.56047C60.9012 5.365 61.0653 5.02474 61.0653 4.53969ZM56.8752 1.95516H59.9713C60.708 1.95516 61.3024 2.13977 61.7546 2.50898C62.3599 3.00128 62.6626 3.67818 62.6626 4.53969C62.6626 5.43016 62.3344 6.12516 61.678 6.62469C61.2404 6.95771 60.6715 7.12422 59.9713 7.12422H58.2756V9.1875C58.2756 9.2961 58.2209 9.35039 58.1115 9.35039H56.8752C56.8242 9.35039 56.7804 9.33591 56.7439 9.30696C56.7148 9.27076 56.7002 9.23094 56.7002 9.1875V2.11805C56.7002 2.07461 56.7148 2.03841 56.7439 2.00945C56.7804 1.97326 56.8242 1.95516 56.8752 1.95516Z" fill="#023460"/>
<path d="M63.9479 1.95516H65.1842C65.2936 1.95516 65.3483 2.00945 65.3483 2.11805V7.97125H68.5319C68.6486 7.97125 68.7069 8.02555 68.7069 8.13414V9.1875C68.7069 9.23094 68.6887 9.27076 68.6522 9.30696C68.6231 9.33591 68.583 9.35039 68.5319 9.35039H63.9479C63.8969 9.35039 63.8531 9.33591 63.8166 9.30696C63.7875 9.27076 63.7729 9.23094 63.7729 9.1875V2.11805C63.7729 2.07461 63.7875 2.03841 63.8166 2.00945C63.8531 1.97326 63.8969 1.95516 63.9479 1.95516Z" fill="#023460"/>
<path d="M71.1028 7.8518L70.6542 9.16578C70.6105 9.28886 70.5193 9.35039 70.3807 9.35039H69.1554C69.0533 9.35039 69.0022 9.30696 69.0022 9.22008C69.0022 9.2056 69.0095 9.1694 69.0241 9.11149L71.5732 2.09633C71.6024 1.9805 71.6899 1.92258 71.8358 1.92258H73.1377C73.2835 1.92258 73.3711 1.9805 73.4002 2.09633L75.9165 9.11149C75.9311 9.1694 75.9384 9.2056 75.9384 9.22008C75.9384 9.30696 75.8873 9.35039 75.7852 9.35039H74.5271C74.3739 9.35039 74.2827 9.28886 74.2536 9.16578L73.805 7.8518H71.1028ZM73.4221 6.60297L72.4703 3.82297L71.4966 6.60297H73.4221Z" fill="#023460"/>
<path d="M79.0525 9.45899C78.0533 9.45899 77.1635 9.22732 76.3831 8.76399C76.2956 8.71331 76.2737 8.64453 76.3174 8.55766L76.8207 7.5043C76.8717 7.40294 76.941 7.38123 77.0286 7.43914C77.7433 7.888 78.4107 8.11242 79.0306 8.11242C79.4026 8.11242 79.687 8.04003 79.884 7.89524C80.0955 7.74321 80.2012 7.53326 80.2012 7.26539C80.2012 6.89617 79.8913 6.60659 79.2713 6.39664C79.1546 6.3532 78.9577 6.29167 78.6805 6.21203C78.4034 6.12516 78.1518 6.03828 77.9257 5.95141C77.6996 5.86453 77.4917 5.76318 77.3021 5.64735C76.6821 5.24193 76.3721 4.68086 76.3721 3.96414C76.3721 3.31258 76.6311 2.79495 77.1489 2.41125C77.6521 2.04203 78.3377 1.85742 79.2057 1.85742C80.1028 1.85742 80.8978 2.04565 81.5906 2.42211C81.6855 2.47279 81.7073 2.54156 81.6563 2.62844L81.153 3.6818C81.102 3.76867 81.0327 3.78677 80.9452 3.73609C80.3033 3.38859 79.6943 3.21484 79.1181 3.21484C78.7753 3.21484 78.5055 3.27638 78.3086 3.39945C78.1262 3.52977 78.0351 3.69628 78.0351 3.89899C78.0351 4.08721 78.1153 4.24287 78.2757 4.36594C78.4362 4.48177 78.6732 4.59037 78.9869 4.69172C79.089 4.72068 79.2567 4.76774 79.4901 4.83289C79.7235 4.89805 79.9095 4.95597 80.0481 5.00664C80.1939 5.05008 80.3617 5.11524 80.5513 5.20211C80.7482 5.28175 80.9196 5.37224 81.0655 5.4736C81.6344 5.86453 81.9188 6.41836 81.9188 7.13508C81.9188 7.85904 81.6453 8.42735 81.0983 8.84C80.5732 9.25266 79.8913 9.45899 79.0525 9.45899Z" fill="#023460"/>
<path d="M90.7488 2.11805V9.1875C90.7488 9.23094 90.7305 9.27076 90.6941 9.30696C90.6649 9.33591 90.6248 9.35039 90.5737 9.35039H89.3922C89.3411 9.35039 89.2973 9.33591 89.2609 9.30696C89.2317 9.27076 89.2171 9.23094 89.2171 9.1875V4.67L87.6308 7.41742C87.5651 7.53326 87.4776 7.59117 87.3682 7.59117H86.4602C86.3508 7.59117 86.2632 7.53326 86.1976 7.41742L84.5675 4.67V9.1875C84.5675 9.23094 84.5493 9.27076 84.5128 9.30696C84.4836 9.33591 84.4435 9.35039 84.3925 9.35039H83.2109C83.1599 9.35039 83.1161 9.33591 83.0796 9.30696C83.0505 9.27076 83.0359 9.23094 83.0359 9.1875V2.11805C83.0359 2.07461 83.0505 2.03841 83.0796 2.00945C83.1161 1.97326 83.1599 1.95516 83.2109 1.95516H84.4581C84.5967 1.95516 84.6988 2.01307 84.7644 2.12891L86.8868 5.78852L89.0202 2.12891C89.0785 2.01307 89.177 1.95516 89.3156 1.95516H90.5737C90.6248 1.95516 90.6649 1.97326 90.6941 2.00945C90.7305 2.03841 90.7488 2.07461 90.7488 2.11805Z" fill="#023460"/>
<path d="M93.6243 7.8518L93.1758 9.16578C93.132 9.28886 93.0408 9.35039 92.9023 9.35039H91.677C91.5749 9.35039 91.5238 9.30696 91.5238 9.22008C91.5238 9.2056 91.5311 9.1694 91.5457 9.11149L94.0948 2.09633C94.1239 1.9805 94.2115 1.92258 94.3573 1.92258H95.6592C95.8051 1.92258 95.8926 1.9805 95.9218 2.09633L98.438 9.11149C98.4526 9.1694 98.4599 9.2056 98.4599 9.22008C98.4599 9.30696 98.4089 9.35039 98.3068 9.35039H97.0486C96.8955 9.35039 96.8043 9.28886 96.7751 9.16578L96.3266 7.8518H93.6243ZM95.9437 6.60297L94.9919 3.82297L94.0182 6.60297H95.9437Z" fill="#023460"/>
<path d="M106.408 4.53969C106.408 4.07636 106.251 3.74333 105.937 3.54063C105.711 3.39583 105.434 3.32344 105.106 3.32344H103.618V5.75594H105.073C105.438 5.75594 105.718 5.69078 105.915 5.56047C106.243 5.365 106.408 5.02474 106.408 4.53969ZM102.217 1.95516H105.314C106.05 1.95516 106.645 2.13977 107.097 2.50898C107.702 3.00128 108.005 3.67818 108.005 4.53969C108.005 5.43016 107.677 6.12516 107.02 6.62469C106.583 6.95771 106.014 7.12422 105.314 7.12422H103.618V9.1875C103.618 9.2961 103.563 9.35039 103.454 9.35039H102.217C102.166 9.35039 102.123 9.33591 102.086 9.30696C102.057 9.27076 102.042 9.23094 102.042 9.1875V2.11805C102.042 2.07461 102.057 2.03841 102.086 2.00945C102.123 1.97326 102.166 1.95516 102.217 1.95516Z" fill="#023460"/>
<path d="M114.399 6.1686C114.21 6.32787 113.987 6.4618 113.732 6.57039L115.351 9.06805C115.46 9.25628 115.428 9.35039 115.253 9.35039H113.885C113.732 9.35039 113.626 9.2961 113.568 9.1875L112.102 6.78758H110.691V9.1875C110.691 9.2961 110.636 9.35039 110.526 9.35039H109.29C109.239 9.35039 109.195 9.33591 109.159 9.30696C109.13 9.27076 109.115 9.23094 109.115 9.1875V2.11805C109.115 2.07461 109.13 2.03841 109.159 2.00945C109.195 1.97326 109.239 1.95516 109.29 1.95516H112.485C113.287 1.95516 113.914 2.12167 114.366 2.45469C114.943 2.87458 115.231 3.50805 115.231 4.35508C115.231 5.10076 114.954 5.70526 114.399 6.1686ZM112.353 3.28H110.691V5.46274H112.222C112.674 5.46274 112.995 5.4012 113.185 5.27813C113.484 5.0899 113.633 4.78945 113.633 4.3768C113.633 3.97138 113.495 3.67456 113.218 3.48633C112.999 3.34878 112.711 3.28 112.353 3.28Z" fill="#023460"/>
<path d="M122.922 2.92164C123.688 3.63112 124.071 4.54693 124.071 5.66906C124.071 6.7912 123.692 7.70339 122.933 8.40563C122.175 9.10787 121.226 9.45899 120.089 9.45899C118.951 9.45899 117.999 9.10787 117.233 8.40563C116.475 7.70339 116.095 6.7912 116.095 5.66906C116.095 4.53969 116.475 3.62388 117.233 2.92164C117.999 2.21216 118.951 1.85742 120.089 1.85742C121.219 1.85742 122.164 2.21216 122.922 2.92164ZM121.741 7.34141C122.178 6.89255 122.397 6.33511 122.397 5.66906C122.397 5.00302 122.178 4.44557 121.741 3.99672C121.303 3.54787 120.752 3.32344 120.089 3.32344C119.425 3.32344 118.871 3.54787 118.426 3.99672C117.988 4.44557 117.769 5.00302 117.769 5.66906C117.769 6.33511 117.988 6.89255 118.426 7.34141C118.871 7.78302 119.425 8.00383 120.089 8.00383C120.752 8.00383 121.303 7.78302 121.741 7.34141Z" fill="#023460"/>
<path d="M124.499 1.95516H130.538C130.589 1.95516 130.629 1.97326 130.659 2.00945C130.695 2.03841 130.713 2.07461 130.713 2.11805V3.18227C130.713 3.2257 130.695 3.26552 130.659 3.30172C130.629 3.33068 130.589 3.34516 130.538 3.34516H128.306V9.1875C128.306 9.23094 128.288 9.27076 128.252 9.30696C128.223 9.33591 128.186 9.35039 128.142 9.35039H126.895C126.851 9.35039 126.811 9.33591 126.775 9.30696C126.746 9.27076 126.731 9.23094 126.731 9.1875V3.34516H124.499C124.456 3.34516 124.415 3.33068 124.379 3.30172C124.35 3.26552 124.335 3.2257 124.335 3.18227V2.11805C124.335 2.07461 124.35 2.03841 124.379 2.00945C124.415 1.97326 124.456 1.95516 124.499 1.95516Z" fill="#023460"/>
<path d="M131.705 1.95516H136.978C137.029 1.95516 137.069 1.97326 137.098 2.00945C137.135 2.03841 137.153 2.07461 137.153 2.11805V3.18227C137.153 3.2257 137.135 3.26552 137.098 3.30172C137.069 3.33068 137.029 3.34516 136.978 3.34516H133.105V4.94149H136.409C136.453 4.94149 136.489 4.95958 136.519 4.99578C136.555 5.02474 136.573 5.06094 136.573 5.10438V6.15774C136.573 6.20841 136.555 6.25185 136.519 6.28805C136.489 6.31701 136.453 6.33149 136.409 6.33149H133.105V7.97125H136.978C137.095 7.97125 137.153 8.02555 137.153 8.13414V9.1875C137.153 9.23094 137.135 9.27076 137.098 9.30696C137.069 9.33591 137.029 9.35039 136.978 9.35039H131.705C131.654 9.35039 131.61 9.33591 131.574 9.30696C131.544 9.27076 131.53 9.23094 131.53 9.1875V2.11805C131.53 2.07461 131.544 2.03841 131.574 2.00945C131.61 1.97326 131.654 1.95516 131.705 1.95516Z" fill="#023460"/>
<path d="M138.468 1.95516H139.704C139.813 1.95516 139.868 2.00945 139.868 2.11805V9.1875C139.868 9.2961 139.813 9.35039 139.704 9.35039H138.468C138.417 9.35039 138.373 9.33591 138.336 9.30696C138.307 9.27076 138.293 9.23094 138.293 9.1875V2.11805C138.293 2.07461 138.307 2.03841 138.336 2.00945C138.373 1.97326 138.417 1.95516 138.468 1.95516Z" fill="#023460"/>
<path d="M146.49 6.755V2.11805C146.49 2.07461 146.505 2.03841 146.534 2.00945C146.57 1.97326 146.611 1.95516 146.654 1.95516H147.836C147.88 1.95516 147.916 1.97326 147.945 2.00945C147.982 2.03841 148 2.07461 148 2.11805V9.1875C148 9.23094 147.982 9.27076 147.945 9.30696C147.916 9.33591 147.88 9.35039 147.836 9.35039H146.742C146.611 9.35039 146.508 9.2961 146.436 9.1875L142.858 4.56141V9.1875C142.858 9.23094 142.84 9.27076 142.803 9.30696C142.774 9.33591 142.738 9.35039 142.694 9.35039H141.523C141.472 9.35039 141.429 9.33591 141.392 9.30696C141.363 9.27076 141.348 9.23094 141.348 9.1875V2.11805C141.348 2.07461 141.363 2.03841 141.392 2.00945C141.429 1.97326 141.472 1.95516 141.523 1.95516H142.617C142.727 1.95516 142.825 2.01307 142.913 2.12891L146.49 6.755Z" fill="#023460"/>
<path d="M56.2188 16.8687H62.2578C62.3089 16.8687 62.349 16.8868 62.3782 16.923C62.4146 16.9519 62.4329 16.9881 62.4329 17.0316V18.0958C62.4329 18.1392 62.4146 18.179 62.3782 18.2152C62.349 18.2442 62.3089 18.2587 62.2578 18.2587H60.026V24.101C60.026 24.1444 60.0078 24.1843 59.9713 24.2205C59.9421 24.2494 59.9057 24.2639 59.8619 24.2639H58.6147C58.571 24.2639 58.5308 24.2494 58.4944 24.2205C58.4652 24.1843 58.4506 24.1444 58.4506 24.101V18.2587H56.2188C56.175 18.2587 56.1349 18.2442 56.0985 18.2152C56.0693 18.179 56.0547 18.1392 56.0547 18.0958V17.0316C56.0547 16.9881 56.0693 16.9519 56.0985 16.923C56.1349 16.8868 56.175 16.8687 56.2188 16.8687Z" fill="#023460"/>
<path d="M68.3804 16.8687H69.6275C69.6713 16.8687 69.7078 16.8868 69.737 16.923C69.7734 16.9519 69.7917 16.9881 69.7917 17.0316V24.101C69.7917 24.1444 69.7734 24.1843 69.737 24.2205C69.7078 24.2494 69.6713 24.2639 69.6275 24.2639H68.3804C68.3366 24.2639 68.2965 24.2494 68.26 24.2205C68.2308 24.1843 68.2163 24.1444 68.2163 24.101V21.2341H64.8248V24.101C64.8248 24.2096 64.7701 24.2639 64.6607 24.2639H63.4244C63.3734 24.2639 63.3296 24.2494 63.2931 24.2205C63.264 24.1843 63.2494 24.1444 63.2494 24.101V17.0316C63.2494 16.9881 63.264 16.9519 63.2931 16.923C63.3296 16.8868 63.3734 16.8687 63.4244 16.8687H64.6607C64.7701 16.8687 64.8248 16.923 64.8248 17.0316V19.855H68.2163V17.0316C68.2163 16.9881 68.2308 16.9519 68.26 16.923C68.2965 16.8868 68.3366 16.8687 68.3804 16.8687Z" fill="#023460"/>
<path d="M71.448 16.8687H76.7212C76.7723 16.8687 76.8124 16.8868 76.8415 16.923C76.878 16.9519 76.8962 16.9881 76.8962 17.0316V18.0958C76.8962 18.1392 76.878 18.179 76.8415 18.2152C76.8124 18.2442 76.7723 18.2587 76.7212 18.2587H72.8483V19.855H76.1523C76.1961 19.855 76.2325 19.8731 76.2617 19.9093C76.2982 19.9382 76.3164 19.9744 76.3164 20.0179V21.0712C76.3164 21.1219 76.2982 21.1654 76.2617 21.2016C76.2325 21.2305 76.1961 21.245 76.1523 21.245H72.8483V22.8848H76.7212C76.8379 22.8848 76.8962 22.9391 76.8962 23.0476V24.101C76.8962 24.1444 76.878 24.1843 76.8415 24.2205C76.8124 24.2494 76.7723 24.2639 76.7212 24.2639H71.448C71.3969 24.2639 71.3532 24.2494 71.3167 24.2205C71.2875 24.1843 71.2729 24.1444 71.2729 24.101V17.0316C71.2729 16.9881 71.2875 16.9519 71.3167 16.923C71.3532 16.8868 71.3969 16.8687 71.448 16.8687Z" fill="#023460"/>
<path d="M83.32 21.0821C83.1303 21.2414 82.9079 21.3753 82.6526 21.4839L84.2718 23.9816C84.3812 24.1698 84.3484 24.2639 84.1733 24.2639H82.8058C82.6526 24.2639 82.5469 24.2096 82.4885 24.101L81.0225 21.7011H79.6112V24.101C79.6112 24.2096 79.5565 24.2639 79.4471 24.2639H78.2109C78.1598 24.2639 78.1161 24.2494 78.0796 24.2205C78.0504 24.1843 78.0358 24.1444 78.0358 24.101V17.0316C78.0358 16.9881 78.0504 16.9519 78.0796 16.923C78.1161 16.8868 78.1598 16.8687 78.2109 16.8687H81.4054C82.2077 16.8687 82.835 17.0352 83.2872 17.3682C83.8633 17.7881 84.1514 18.4216 84.1514 19.2686C84.1514 20.0143 83.8743 20.6188 83.32 21.0821ZM81.2741 18.1935H79.6112V20.3762H81.1429C81.5951 20.3762 81.916 20.3147 82.1056 20.1916C82.4046 20.0034 82.5542 19.703 82.5542 19.2903C82.5542 18.8849 82.4156 18.5881 82.1384 18.3998C81.9196 18.2623 81.6315 18.1935 81.2741 18.1935Z" fill="#023460"/>
<path d="M86.7119 22.7653L86.2633 24.0793C86.2196 24.2024 86.1284 24.2639 85.9898 24.2639H84.7645C84.6624 24.2639 84.6113 24.2205 84.6113 24.1336C84.6113 24.1191 84.6186 24.0829 84.6332 24.025L87.1823 17.0098C87.2115 16.894 87.299 16.8361 87.4449 16.8361H88.7468C88.8926 16.8361 88.9802 16.894 89.0093 17.0098L91.5256 24.025C91.5402 24.0829 91.5475 24.1191 91.5475 24.1336C91.5475 24.2205 91.4964 24.2639 91.3943 24.2639H90.1362C89.983 24.2639 89.8918 24.2024 89.8627 24.0793L89.4141 22.7653H86.7119ZM89.0312 21.5165L88.0794 18.7365L87.1057 21.5165H89.0312Z" fill="#023460"/>
<path d="M96.6746 19.4532C96.6746 18.9899 96.5178 18.6568 96.2042 18.4541C95.9781 18.3093 95.7009 18.2369 95.3727 18.2369H93.8848V20.6694H95.3399C95.7046 20.6694 95.9854 20.6043 96.1823 20.474C96.5105 20.2785 96.6746 19.9382 96.6746 19.4532ZM92.4845 16.8687H95.5806C96.3172 16.8687 96.9117 17.0533 97.3638 17.4225C97.9692 17.9148 98.2719 18.5917 98.2719 19.4532C98.2719 20.3437 97.9437 21.0387 97.2873 21.5382C96.8497 21.8712 96.2808 22.0377 95.5806 22.0377H93.8848V24.101C93.8848 24.2096 93.8301 24.2639 93.7207 24.2639H92.4845C92.4334 24.2639 92.3897 24.2494 92.3532 24.2205C92.324 24.1843 92.3094 24.1444 92.3094 24.101V17.0316C92.3094 16.9881 92.324 16.9519 92.3532 16.923C92.3897 16.8868 92.4334 16.8687 92.4845 16.8687Z" fill="#023460"/>
<path d="M99.5572 16.8687H104.83C104.881 16.8687 104.922 16.8868 104.951 16.923C104.987 16.9519 105.005 16.9881 105.005 17.0316V18.0958C105.005 18.1392 104.987 18.179 104.951 18.2152C104.922 18.2442 104.881 18.2587 104.83 18.2587H100.958V19.855H104.262C104.305 19.855 104.342 19.8731 104.371 19.9093C104.407 19.9382 104.426 19.9744 104.426 20.0179V21.0712C104.426 21.1219 104.407 21.1654 104.371 21.2016C104.342 21.2305 104.305 21.245 104.262 21.245H100.958V22.8848H104.83C104.947 22.8848 105.005 22.9391 105.005 23.0476V24.101C105.005 24.1444 104.987 24.1843 104.951 24.2205C104.922 24.2494 104.881 24.2639 104.83 24.2639H99.5572C99.5061 24.2639 99.4624 24.2494 99.4259 24.2205C99.3967 24.1843 99.3822 24.1444 99.3822 24.101V17.0316C99.3822 16.9881 99.3967 16.9519 99.4259 16.923C99.4624 16.8868 99.5061 16.8687 99.5572 16.8687Z" fill="#023460"/>
<path d="M111.024 21.1581V17.0316C111.024 16.9881 111.039 16.9519 111.068 16.923C111.105 16.8868 111.148 16.8687 111.199 16.8687H112.436C112.545 16.8687 112.6 16.923 112.6 17.0316V21.3427C112.6 22.1898 112.374 22.8703 111.921 23.3843C111.338 24.0431 110.485 24.3725 109.361 24.3725C108.238 24.3725 107.392 24.0431 106.823 23.3843C106.364 22.863 106.134 22.1825 106.134 21.3427V17.0316C106.134 16.9881 106.149 16.9519 106.178 16.923C106.214 16.8868 106.254 16.8687 106.298 16.8687H107.545C107.589 16.8687 107.626 16.8868 107.655 16.923C107.691 16.9519 107.709 16.9881 107.709 17.0316V21.1581C107.709 21.7156 107.833 22.1391 108.081 22.4287C108.366 22.7689 108.793 22.9391 109.361 22.9391C109.945 22.9391 110.379 22.7689 110.663 22.4287C110.904 22.1318 111.024 21.7083 111.024 21.1581Z" fill="#023460"/>
<path d="M113.58 16.8687H119.619C119.67 16.8687 119.711 16.8868 119.74 16.923C119.776 16.9519 119.794 16.9881 119.794 17.0316V18.0958C119.794 18.1392 119.776 18.179 119.74 18.2152C119.711 18.2442 119.67 18.2587 119.619 18.2587H117.388V24.101C117.388 24.1444 117.369 24.1843 117.333 24.2205C117.304 24.2494 117.267 24.2639 117.223 24.2639H115.976C115.933 24.2639 115.892 24.2494 115.856 24.2205C115.827 24.1843 115.812 24.1444 115.812 24.101V18.2587H113.58C113.537 18.2587 113.497 18.2442 113.46 18.2152C113.431 18.179 113.416 18.1392 113.416 18.0958V17.0316C113.416 16.9881 113.431 16.9519 113.46 16.923C113.497 16.8868 113.537 16.8687 113.58 16.8687Z" fill="#023460"/>
<path d="M120.786 16.8687H122.022C122.132 16.8687 122.186 16.923 122.186 17.0316V24.101C122.186 24.2096 122.132 24.2639 122.022 24.2639H120.786C120.735 24.2639 120.691 24.2494 120.655 24.2205C120.626 24.1843 120.611 24.1444 120.611 24.101V17.0316C120.611 16.9881 120.626 16.9519 120.655 16.923C120.691 16.8868 120.735 16.8687 120.786 16.8687Z" fill="#023460"/>
<path d="M127.332 24.3725C126.128 24.3725 125.165 24.0286 124.443 23.3408C123.729 22.6531 123.371 21.7264 123.371 20.5608C123.371 19.4821 123.754 18.5808 124.52 17.8569C125.293 17.1329 126.241 16.7709 127.364 16.7709C128.196 16.7709 128.947 16.9411 129.618 17.2813C129.713 17.3392 129.738 17.4152 129.695 17.5094L129.191 18.5519C129.148 18.646 129.075 18.6677 128.973 18.617C128.389 18.3274 127.842 18.1826 127.332 18.1826C126.697 18.1826 126.154 18.4107 125.701 18.8668C125.249 19.3229 125.023 19.8876 125.023 20.5608C125.023 21.2631 125.242 21.8386 125.68 22.2875C126.124 22.7291 126.679 22.9499 127.342 22.9499C127.926 22.9499 128.491 22.8051 129.038 22.5155C129.133 22.4721 129.199 22.4902 129.235 22.5698L129.738 23.6341C129.782 23.7282 129.757 23.7969 129.662 23.8404C128.962 24.1951 128.185 24.3725 127.332 24.3725Z" fill="#023460"/>
<path d="M133.177 24.3725C132.178 24.3725 131.288 24.1408 130.507 23.6775C130.42 23.6268 130.398 23.558 130.442 23.4712L130.945 22.4178C130.996 22.3164 131.065 22.2947 131.153 22.3526C131.868 22.8015 132.535 23.0259 133.155 23.0259C133.527 23.0259 133.811 22.9535 134.008 22.8087C134.22 22.6567 134.326 22.4468 134.326 22.1789C134.326 21.8097 134.016 21.5201 133.396 21.3101C133.279 21.2667 133.082 21.2052 132.805 21.1255C132.528 21.0387 132.276 20.9518 132.05 20.8649C131.824 20.778 131.616 20.6767 131.426 20.5608C130.806 20.1554 130.497 19.5944 130.497 18.8776C130.497 18.2261 130.755 17.7085 131.273 17.3248C131.777 16.9555 132.462 16.7709 133.33 16.7709C134.227 16.7709 135.022 16.9592 135.715 17.3356C135.81 17.3863 135.832 17.4551 135.781 17.5419L135.277 18.5953C135.226 18.6822 135.157 18.7003 135.07 18.6496C134.428 18.3021 133.819 18.1283 133.243 18.1283C132.9 18.1283 132.63 18.1899 132.433 18.313C132.251 18.4433 132.159 18.6098 132.159 18.8125C132.159 19.0007 132.24 19.1564 132.4 19.2794C132.561 19.3953 132.798 19.5039 133.111 19.6052C133.213 19.6342 133.381 19.6812 133.614 19.7464C133.848 19.8116 134.034 19.8695 134.172 19.9201C134.318 19.9636 134.486 20.0287 134.676 20.1156C134.873 20.1952 135.044 20.2857 135.19 20.3871C135.759 20.778 136.043 21.3319 136.043 22.0486C136.043 22.7725 135.77 23.3408 135.223 23.7535C134.698 24.1662 134.016 24.3725 133.177 24.3725Z" fill="#023460"/>
<path d="M58.1005 37.6788L57.652 38.9928C57.6082 39.1159 57.517 39.1774 57.3785 39.1774H56.1532C56.0511 39.1774 56 39.134 56 39.0471C56 39.0326 56.0073 38.9964 56.0219 38.9385L58.571 31.9233C58.6001 31.8075 58.6877 31.7496 58.8335 31.7496H60.1354C60.2813 31.7496 60.3688 31.8075 60.398 31.9233L62.9142 38.9385C62.9288 38.9964 62.9361 39.0326 62.9361 39.0471C62.9361 39.134 62.8851 39.1774 62.783 39.1774H61.5248C61.3717 39.1774 61.2805 39.1159 61.2513 38.9928L60.8028 37.6788H58.1005ZM60.4199 36.43L59.4681 33.65L58.4944 36.43H60.4199Z" fill="#023460"/>
<path d="M66.0503 39.286C65.051 39.286 64.1612 39.0543 63.3808 38.591C63.2933 38.5403 63.2714 38.4715 63.3152 38.3847L63.8184 37.3313C63.8695 37.2299 63.9388 37.2082 64.0263 37.2661C64.7411 37.715 65.4084 37.9394 66.0284 37.9394C66.4003 37.9394 66.6848 37.867 66.8817 37.7222C67.0932 37.5702 67.199 37.3603 67.199 37.0924C67.199 36.7232 66.889 36.4336 66.2691 36.2236C66.1524 36.1802 65.9554 36.1187 65.6783 36.039C65.4011 35.9522 65.1495 35.8653 64.9234 35.7784C64.6973 35.6915 64.4894 35.5902 64.2998 35.4743C63.6799 35.0689 63.3699 34.5079 63.3699 33.7911C63.3699 33.1396 63.6288 32.622 64.1466 32.2383C64.6499 31.869 65.3355 31.6844 66.2034 31.6844C67.1005 31.6844 67.8955 31.8727 68.5884 32.2491C68.6832 32.2998 68.7051 32.3686 68.654 32.4554L68.1508 33.5088C68.0997 33.5957 68.0304 33.6138 67.9429 33.5631C67.3011 33.2156 66.6921 33.0418 66.1159 33.0418C65.7731 33.0418 65.5032 33.1034 65.3063 33.2265C65.124 33.3568 65.0328 33.5233 65.0328 33.726C65.0328 33.9142 65.113 34.0699 65.2735 34.1929C65.434 34.3088 65.671 34.4174 65.9846 34.5187C66.0867 34.5477 66.2545 34.5947 66.4879 34.6599C66.7213 34.7251 66.9072 34.783 67.0458 34.8336C67.1917 34.8771 67.3594 34.9422 67.5491 35.0291C67.746 35.1087 67.9174 35.1992 68.0633 35.3006C68.6322 35.6915 68.9166 36.2454 68.9166 36.9621C68.9166 37.686 68.6431 38.2544 68.0961 38.667C67.571 39.0797 66.889 39.286 66.0503 39.286Z" fill="#023460"/>
<path d="M72.2148 39.286C71.2156 39.286 70.3258 39.0543 69.5454 38.591C69.4579 38.5403 69.436 38.4715 69.4798 38.3847L69.983 37.3313C70.0341 37.2299 70.1034 37.2082 70.1909 37.2661C70.9057 37.715 71.573 37.9394 72.193 37.9394C72.5649 37.9394 72.8494 37.867 73.0463 37.7222C73.2578 37.5702 73.3636 37.3603 73.3636 37.0924C73.3636 36.7232 73.0536 36.4336 72.4336 36.2236C72.3169 36.1802 72.12 36.1187 71.8429 36.039C71.5657 35.9522 71.3141 35.8653 71.088 35.7784C70.8619 35.6915 70.654 35.5902 70.4644 35.4743C69.8444 35.0689 69.5345 34.5079 69.5345 33.7911C69.5345 33.1396 69.7934 32.622 70.3112 32.2383C70.8145 31.869 71.5001 31.6844 72.368 31.6844C73.2651 31.6844 74.0601 31.8727 74.753 32.2491C74.8478 32.2998 74.8697 32.3686 74.8186 32.4554L74.3154 33.5088C74.2643 33.5957 74.195 33.6138 74.1075 33.5631C73.4657 33.2156 72.8567 33.0418 72.2805 33.0418C71.9377 33.0418 71.6678 33.1034 71.4709 33.2265C71.2886 33.3568 71.1974 33.5233 71.1974 33.726C71.1974 33.9142 71.2776 34.0699 71.4381 34.1929C71.5985 34.3088 71.8356 34.4174 72.1492 34.5187C72.2513 34.5477 72.4191 34.5947 72.6524 34.6599C72.8858 34.7251 73.0718 34.783 73.2104 34.8336C73.3563 34.8771 73.524 34.9422 73.7137 35.0291C73.9106 35.1087 74.082 35.1992 74.2278 35.3006C74.7967 35.6915 75.0812 36.2454 75.0812 36.9621C75.0812 37.686 74.8077 38.2544 74.2607 38.667C73.7355 39.0797 73.0536 39.286 72.2148 39.286Z" fill="#023460"/>
<path d="M82.7295 32.7486C83.4954 33.4581 83.8783 34.3739 83.8783 35.4961C83.8783 36.6182 83.499 37.5304 82.7405 38.2326C81.982 38.9349 81.0338 39.286 79.896 39.286C78.7582 39.286 77.8064 38.9349 77.0406 38.2326C76.2821 37.5304 75.9028 36.6182 75.9028 35.4961C75.9028 34.3667 76.2821 33.4509 77.0406 32.7486C77.8064 32.0392 78.7582 31.6844 79.896 31.6844C81.0265 31.6844 81.971 32.0392 82.7295 32.7486ZM81.548 37.1684C81.9856 36.7196 82.2044 36.1621 82.2044 35.4961C82.2044 34.83 81.9856 34.2726 81.548 33.8237C81.1104 33.3749 80.5597 33.1504 79.896 33.1504C79.2323 33.1504 78.678 33.3749 78.2331 33.8237C77.7955 34.2726 77.5767 34.83 77.5767 35.4961C77.5767 36.1621 77.7955 36.7196 78.2331 37.1684C78.678 37.61 79.2323 37.8308 79.896 37.8308C80.5597 37.8308 81.1104 37.61 81.548 37.1684Z" fill="#023460"/>
<path d="M88.7201 39.286C87.5167 39.286 86.5539 38.9421 85.8319 38.2543C85.1171 37.5666 84.7597 36.6399 84.7597 35.4743C84.7597 34.3956 85.1426 33.4943 85.9085 32.7704C86.6816 32.0464 87.6297 31.6844 88.7529 31.6844C89.5844 31.6844 90.3356 31.8546 91.0066 32.1948C91.1014 32.2527 91.127 32.3288 91.0832 32.4229L90.5799 33.4654C90.5362 33.5595 90.4633 33.5812 90.3611 33.5305C89.7777 33.2409 89.2306 33.0961 88.7201 33.0961C88.0856 33.0961 87.5422 33.3242 87.09 33.7803C86.6378 34.2364 86.4117 34.8011 86.4117 35.4743C86.4117 36.1766 86.6305 36.7521 87.0681 37.201C87.513 37.6426 88.0673 37.8634 88.731 37.8634C89.3145 37.8634 89.8798 37.7186 90.4268 37.429C90.5216 37.3856 90.5872 37.4037 90.6237 37.4833L91.127 38.5476C91.1707 38.6417 91.1452 38.7104 91.0504 38.7539C90.3502 39.1086 89.5734 39.286 88.7201 39.286Z" fill="#023460"/>
<path d="M92.3883 31.7822H93.6246C93.734 31.7822 93.7887 31.8365 93.7887 31.9451V39.0145C93.7887 39.1231 93.734 39.1774 93.6246 39.1774H92.3883C92.3373 39.1774 92.2935 39.1629 92.2571 39.134C92.2279 39.0978 92.2133 39.0579 92.2133 39.0145V31.9451C92.2133 31.9016 92.2279 31.8654 92.2571 31.8365C92.2935 31.8003 92.3373 31.7822 92.3883 31.7822Z" fill="#023460"/>
<path d="M96.6692 37.6788L96.2207 38.9928C96.1769 39.1159 96.0857 39.1774 95.9472 39.1774H94.7219C94.6198 39.1774 94.5687 39.134 94.5687 39.0471C94.5687 39.0326 94.576 38.9964 94.5906 38.9385L97.1397 31.9233C97.1688 31.8075 97.2564 31.7496 97.4022 31.7496H98.7041C98.85 31.7496 98.9375 31.8075 98.9667 31.9233L101.483 38.9385C101.498 38.9964 101.505 39.0326 101.505 39.0471C101.505 39.134 101.454 39.1774 101.352 39.1774H100.094C99.9404 39.1774 99.8492 39.1159 99.82 38.9928L99.3715 37.6788H96.6692ZM98.9886 36.43L98.0368 33.65L97.0631 36.43H98.9886Z" fill="#023460"/>
<path d="M101.027 31.7822H107.066C107.117 31.7822 107.157 31.8003 107.186 31.8365C107.223 31.8654 107.241 31.9016 107.241 31.9451V33.0093C107.241 33.0527 107.223 33.0925 107.186 33.1287C107.157 33.1577 107.117 33.1722 107.066 33.1722H104.834V39.0145C104.834 39.0579 104.816 39.0978 104.779 39.134C104.75 39.1629 104.714 39.1774 104.67 39.1774H103.423C103.379 39.1774 103.339 39.1629 103.302 39.134C103.273 39.0978 103.259 39.0579 103.259 39.0145V33.1722H101.027C100.983 33.1722 100.943 33.1577 100.907 33.1287C100.877 33.0925 100.863 33.0527 100.863 33.0093V31.9451C100.863 31.9016 100.877 31.8654 100.907 31.8365C100.943 31.8003 100.983 31.7822 101.027 31.7822Z" fill="#023460"/>
<path d="M108.232 31.7822H109.469C109.578 31.7822 109.633 31.8365 109.633 31.9451V39.0145C109.633 39.1231 109.578 39.1774 109.469 39.1774H108.232C108.181 39.1774 108.138 39.1629 108.101 39.134C108.072 39.0978 108.057 39.0579 108.057 39.0145V31.9451C108.057 31.9016 108.072 31.8654 108.101 31.8365C108.138 31.8003 108.181 31.7822 108.232 31.7822Z" fill="#023460"/>
<path d="M117.644 32.7486C118.41 33.4581 118.793 34.3739 118.793 35.4961C118.793 36.6182 118.414 37.5304 117.655 38.2326C116.897 38.9349 115.949 39.286 114.811 39.286C113.673 39.286 112.721 38.9349 111.955 38.2326C111.197 37.5304 110.818 36.6182 110.818 35.4961C110.818 34.3667 111.197 33.4509 111.955 32.7486C112.721 32.0392 113.673 31.6844 114.811 31.6844C115.941 31.6844 116.886 32.0392 117.644 32.7486ZM116.463 37.1684C116.9 36.7196 117.119 36.1621 117.119 35.4961C117.119 34.83 116.9 34.2726 116.463 33.8237C116.025 33.3749 115.475 33.1504 114.811 33.1504C114.147 33.1504 113.593 33.3749 113.148 33.8237C112.71 34.2726 112.491 34.83 112.491 35.4961C112.491 36.1621 112.71 36.7196 113.148 37.1684C113.593 37.61 114.147 37.8308 114.811 37.8308C115.475 37.8308 116.025 37.61 116.463 37.1684Z" fill="#023460"/>
<path d="M125.112 36.582V31.9451C125.112 31.9016 125.126 31.8654 125.156 31.8365C125.192 31.8003 125.232 31.7822 125.276 31.7822H126.458C126.501 31.7822 126.538 31.8003 126.567 31.8365C126.603 31.8654 126.622 31.9016 126.622 31.9451V39.0145C126.622 39.0579 126.603 39.0978 126.567 39.134C126.538 39.1629 126.501 39.1774 126.458 39.1774H125.363C125.232 39.1774 125.13 39.1231 125.057 39.0145L121.48 34.3884V39.0145C121.48 39.0579 121.461 39.0978 121.425 39.134C121.396 39.1629 121.359 39.1774 121.316 39.1774H120.145C120.094 39.1774 120.05 39.1629 120.014 39.134C119.985 39.0978 119.97 39.0579 119.97 39.0145V31.9451C119.97 31.9016 119.985 31.8654 120.014 31.8365C120.05 31.8003 120.094 31.7822 120.145 31.7822H121.239C121.348 31.7822 121.447 31.8401 121.534 31.9559L125.112 36.582Z" fill="#023460"/>
</svg>
