<svg width="23" height="22" viewBox="0 0 23 22" fill="none" xmlns="http://www.w3.org/2000/svg">
<path d="M2.74609 7.76637C3.48529 5.57712 4.95167 3.715 6.89538 2.49728C8.83909 1.27956 11.1399 0.781603 13.4057 1.08824C15.6715 1.39488 17.7621 2.48715 19.3214 4.17894C20.8807 5.87073 21.8121 8.05736 21.957 10.3663C22.1019 12.6752 21.4512 14.9635 20.1159 16.8413C18.7806 18.7191 16.8433 20.0702 14.634 20.6645C12.4247 21.2587 10.0802 21.0593 7.99989 20.1002C5.9196 19.1411 4.23226 17.4817 3.22536 15.4047" stroke="#F8FBFE" stroke-width="1.8"/>
<path d="M0.5 11.3836H7.80769H15.1154M15.1154 11.3836L10.5 7.15332M15.1154 11.3836L10.4993 15.6149" stroke="#F8FBFE" stroke-width="1.8"/>
</svg>