<svg width="17" height="20" viewBox="0 0 17 20" fill="none" xmlns="http://www.w3.org/2000/svg">
<path d="M1.16867 19.266C1.01667 19.266 0.864672 19.2153 0.712672 19.114C0.586005 19.0127 0.510005 18.8733 0.484672 18.696C0.484672 18.4933 0.586005 18.2653 0.788672 18.012L7.93267 9.006V9.994L1.24467 1.634C1.04201 1.38067 0.940672 1.16533 0.940672 0.987999C0.966005 0.785332 1.04201 0.633332 1.16867 0.531999C1.32067 0.430666 1.47267 0.38 1.62467 0.38C1.82734 0.38 2.00467 0.430666 2.15667 0.531999C2.30867 0.607999 2.44801 0.734666 2.57467 0.912L8.80667 8.74H8.23667L14.4687 0.912C14.5953 0.734666 14.7347 0.607999 14.8867 0.531999C15.0387 0.430666 15.216 0.38 15.4187 0.38C15.5707 0.38 15.71 0.430666 15.8367 0.531999C15.9887 0.633332 16.0647 0.785332 16.0647 0.987999C16.09 1.16533 16.0013 1.38067 15.7987 1.634L9.18667 9.88V9.158L16.2547 18.012C16.4573 18.2653 16.546 18.4933 16.5207 18.696C16.5207 18.8733 16.4447 19.0127 16.2927 19.114C16.166 19.2153 16.0267 19.266 15.8747 19.266C15.672 19.266 15.482 19.2153 15.3047 19.114C15.1527 19.038 15.0007 18.9113 14.8487 18.734L8.19867 10.374H8.80667L2.15667 18.734C2.03001 18.9113 1.87801 19.038 1.70067 19.114C1.54867 19.2153 1.37134 19.266 1.16867 19.266Z" fill="#A7C7DF"/>
</svg>