<svg width="22" height="22" viewBox="0 0 22 22" fill="none" xmlns="http://www.w3.org/2000/svg">
<path d="M9.40847 18.5661C11.4959 18.5657 13.5233 17.8815 15.1676 16.6224L20.3376 21.6843L22.0005 20.0561L16.8306 14.9942C18.1172 13.3841 18.8164 11.3987 18.8169 9.35433C18.8169 4.2752 14.5961 0.142578 9.40847 0.142578C4.22087 0.142578 0 4.2752 0 9.35433C0 14.4335 4.22087 18.5661 9.40847 18.5661ZM9.40847 2.44552C13.3 2.44552 16.4648 5.54412 16.4648 9.35433C16.4648 13.1645 13.3 16.2631 9.40847 16.2631C5.51689 16.2631 2.35212 13.1645 2.35212 9.35433C2.35212 5.54412 5.51689 2.44552 9.40847 2.44552Z" fill="#023460"/>
</svg>
