<svg width="37" height="36" viewBox="0 0 37 36" fill="none" xmlns="http://www.w3.org/2000/svg">
<path d="M28.2488 11.3711C28.2488 12.3416 28.1956 13.2004 28.0894 13.9562C28.0451 14.2654 28.0009 14.5574 27.9389 14.8322V14.8408C27.7707 15.6395 27.3635 16.3696 26.7527 16.9278C26.2304 17.4088 25.5753 17.7609 24.8493 17.9327C24.5218 18.01 24.1854 18.0529 23.8401 18.0529C23.3621 18.0529 22.9018 17.9756 22.4768 17.8382L22.3795 17.8038C19.6263 16.8419 16.8377 15.0899 14.1465 14.274C13.757 14.1537 13.3586 14.0593 12.9691 13.982C12.7301 13.939 12.4911 13.8961 12.2432 13.8789C12.075 13.8703 11.9068 13.8617 11.7386 13.8617C10.5081 13.8617 9.35723 14.1795 8.35689 14.7206C8.19754 14.8236 8.03819 14.9267 7.87884 15.0469C7.84343 15.0727 7.80802 15.0985 7.77261 15.1242C6.78997 15.7941 6.00209 16.7045 5.50634 17.7781C5.45322 17.8897 5.40011 18.01 5.35584 18.1302C5.08141 18.8259 4.92206 19.573 4.90436 20.3632C4.88665 20.5006 4.8778 20.6294 4.86895 20.7668C4.82469 21.4196 4.84239 22.098 4.90436 22.7765C4.94862 24.7862 5.29387 26.7272 5.90471 28.5566C6.2234 29.5099 6.48898 30.4718 6.66603 31.4509C6.70144 31.657 6.73685 31.8545 6.76341 32.052C6.76341 32.052 6.76341 32.052 6.76341 32.0606C6.78112 32.1551 6.78997 32.241 6.79882 32.3355V32.3441C6.80768 32.4471 6.81653 32.5502 6.81653 32.6532C6.81653 32.6704 6.81653 32.6962 6.81653 32.7134V32.7391C6.79882 34.5427 5.29387 35.9941 3.43482 35.9941C2.41677 35.9941 1.5138 35.5647 0.885263 34.8776C0.584274 34.5427 0.345253 34.1476 0.203611 33.7182C0.097379 33.4004 0.0442632 33.0655 0.0442632 32.7219C0.0265579 32.4643 0.0265579 32.2496 0.0265579 32.1122C0.0265579 32.095 0.0265579 32.0864 0.0265579 32.0778C0.0265579 31.9747 0.0265579 31.8803 0.0265579 31.7772C0.0177053 31.4079 0 30.4546 0 29.089C0 21.5398 0.00885263 13.0115 0.00885263 5.40213C0.00885263 5.05 0.00885263 4.72364 0.00885263 4.43163V4.42304V4.39728C0.00885263 4.28563 0.00885263 4.18257 0.00885263 4.07951C0.00885263 3.71879 0.0531158 3.35808 0.150495 3.01454C0.655095 1.27109 2.30168 0 4.24926 0C7.75491 0 16.5279 0 16.5279 0C16.5279 0 16.5544 0 16.5987 0C16.882 0.00858844 17.1741 0.0171769 17.4574 0.0171769C17.4574 0.0171769 17.4574 0.0171769 17.4662 0.0171769C19.9538 0.0171769 22.2467 0.841667 24.0703 2.22441C26.3808 3.97645 27.9301 6.63886 28.1514 9.64481C28.2133 10.1859 28.2488 10.7613 28.2488 11.3711Z" fill="#023460"/>
<path d="M8.74219 24.6289C8.74219 23.6584 8.7953 22.7996 8.90153 22.0438C8.9458 21.7346 8.99006 21.4426 9.05203 21.1678V21.1592C9.22023 20.3605 9.62745 19.6304 10.2383 19.0722C10.7606 18.5912 11.4157 18.2391 12.1416 18.0673C12.4691 17.99 12.8055 17.9471 13.1508 17.9471C13.6288 17.9471 14.0892 18.0244 14.5141 18.1618L14.6115 18.1962C17.3647 19.1581 20.1532 20.9101 22.8444 21.726C23.2339 21.8463 23.6323 21.9407 24.0218 22.018C24.2609 22.061 24.4999 22.1039 24.7477 22.1211C24.9159 22.1297 25.0841 22.1383 25.2435 22.1383C26.474 22.1383 27.6249 21.8205 28.6252 21.2794C28.7845 21.1764 28.9439 21.0733 29.1032 20.9531C29.1387 20.9273 29.1741 20.9015 29.2095 20.8758C30.1921 20.2059 30.98 19.2955 31.4757 18.2219C31.5289 18.1103 31.582 17.99 31.6262 17.8698C31.9007 17.1741 32.06 16.4269 32.0777 15.6368C32.0954 15.4994 32.1043 15.3706 32.1131 15.2332C32.1574 14.5804 32.1397 13.9019 32.0777 13.2235C32.0335 11.2138 31.6882 9.27278 31.0774 7.44345C30.7587 6.49013 30.4931 5.52822 30.3161 4.54914C30.2806 4.34302 30.2452 4.14549 30.2187 3.94795C30.2187 3.94795 30.2187 3.94795 30.2187 3.93936C30.201 3.84489 30.1921 3.75901 30.1833 3.66453V3.65594C30.1744 3.55288 30.1656 3.44982 30.1656 3.34676C30.1656 3.32958 30.1656 3.30382 30.1656 3.28664V3.26088C30.1833 1.45731 31.6882 0.00585938 33.5473 0.00585938C34.5653 0.00585938 35.4683 0.435281 36.0968 1.12236C36.3978 1.45731 36.6368 1.85237 36.7785 2.2818C36.8847 2.59957 36.9378 2.93452 36.9378 3.27805V3.28664C36.9555 3.5443 36.9555 3.75901 36.9555 3.89642C36.9555 3.99948 36.9467 4.06819 36.9467 4.06819C36.9467 4.06819 36.9821 5.15033 36.9821 6.92814C36.9821 14.4774 36.9732 23.0057 36.9732 30.615C36.9732 30.9672 36.9732 31.2935 36.9732 31.5855V31.5941C36.9732 31.972 36.9644 32.2984 36.9644 32.5646C36.9644 32.6505 36.9555 32.7364 36.9378 32.8137C36.5926 34.6258 34.946 36 32.9807 36C29.661 36 20.4542 36 20.4542 36C20.4542 36 20.286 36 19.985 35.9742C19.8257 35.9828 19.6663 35.9828 19.507 35.9828C17.0194 35.9828 14.7266 35.1583 12.9029 33.7756C10.5924 32.0235 9.04318 29.3611 8.82186 26.3552C8.7776 25.8141 8.74219 25.2387 8.74219 24.6289Z" fill="#023460"/>
</svg>
